<svg width="361" height="310" viewBox="0 0 361 310" fill="none" xmlns="http://www.w3.org/2000/svg">
<path d="M180.601 278.232C257.7 278.232 320.202 274.583 320.202 270.082C320.202 265.581 257.7 261.932 180.601 261.932C103.501 261.932 41 265.581 41 270.082C41 274.583 103.501 278.232 180.601 278.232Z" fill="#262626" fill-opacity="0.5"/>
<g opacity="0.1">
<path d="M53.0392 47.2584C52.3192 44.0832 52.636 41.4192 54.004 39.2448C55.372 37.0704 57.604 35.6448 60.7792 34.9248C63.9544 34.2048 66.6976 34.4928 68.8432 35.832C70.9888 37.1712 72.4432 39.432 73.1632 42.528C73.6715 44.4389 73.7135 46.4439 73.2856 48.3744C72.867 49.9776 71.9825 51.4208 70.744 52.5216C69.2729 53.7601 67.5072 54.5983 65.6176 54.9552C63.7653 55.447 61.8257 55.5134 59.944 55.1496C58.3083 54.7521 56.829 53.8745 55.696 52.6296C54.3424 51.1114 53.4245 49.2555 53.0392 47.2584ZM59.044 45.9192C59.4904 47.8776 60.1744 49.2024 61.096 49.8936C61.5717 50.2108 62.1067 50.4285 62.6687 50.5337C63.2308 50.6388 63.8083 50.6292 64.3665 50.5055C64.9247 50.3817 65.4522 50.1464 65.9171 49.8136C66.3821 49.4807 66.7749 49.0573 67.072 48.5688C67.5904 47.568 67.5976 45.9768 67.108 43.8096C66.6904 41.9808 66.016 40.728 65.0848 40.0512C64.616 39.7147 64.0776 39.4876 63.5094 39.3867C62.9412 39.2857 62.3576 39.3135 61.8016 39.468C61.2451 39.5722 60.7194 39.8013 60.2642 40.138C59.809 40.4747 59.4361 40.9103 59.1736 41.412C58.6408 42.4704 58.5904 43.9104 59.044 45.9192Z" fill="white"/>
<path d="M75.9856 44.8814C75.7298 43.9002 75.6842 42.8761 75.8517 41.876C76.0192 40.8759 76.3961 39.9225 76.9576 39.0782C77.5871 38.1812 78.3875 37.4173 79.313 36.8305C80.2384 36.2436 81.2706 35.8452 82.3504 35.6582C85.168 35.0198 87.4816 35.3534 89.2912 36.659C90.8141 37.8396 91.8495 39.5392 92.2 41.4339C92.5505 43.3287 92.1918 45.2862 91.192 46.9334C90.0688 48.647 88.24 49.7894 85.7056 50.3606C83.7531 50.9065 81.6698 50.738 79.8304 49.8854C78.8468 49.4047 77.9878 48.7028 77.3208 47.8346C76.6537 46.9665 76.1967 45.9557 75.9856 44.8814ZM81.3928 43.6358C81.5385 44.6419 82.0298 45.566 82.7824 46.2494C83.0807 46.4752 83.4247 46.6334 83.7903 46.7129C84.1559 46.7924 84.5345 46.7913 84.8996 46.7098C85.2648 46.6283 85.6078 46.4682 85.9049 46.2408C86.202 46.0133 86.446 45.7239 86.62 45.3926C86.997 44.4255 87.0325 43.3587 86.7208 42.3686C86.5693 41.3861 86.0836 40.4859 85.3456 39.8198C85.0592 39.5876 84.7231 39.4246 84.3635 39.3435C84.0039 39.2623 83.6304 39.2651 83.272 39.3518C82.8984 39.4292 82.5474 39.5907 82.2455 39.824C81.9436 40.0573 81.6988 40.3562 81.5296 40.6982C81.1419 41.6313 81.0934 42.6708 81.3928 43.6358Z" fill="white"/>
<path d="M97.5784 52.9603L93.1648 33.5203L98.2048 32.3683L98.68 34.4491C99.0356 33.6192 99.5519 32.868 100.199 32.2387C100.91 31.6357 101.758 31.2177 102.669 31.0219C103.511 30.7929 104.396 30.7797 105.245 30.9836C106.093 31.1875 106.876 31.6018 107.522 32.1883C108.945 33.5185 109.91 35.2652 110.279 37.1779C110.812 39.5179 110.654 41.4331 109.818 42.9379C109.421 43.6573 108.872 44.2818 108.21 44.7679C107.547 45.254 106.786 45.5902 105.981 45.7531C105.205 45.9371 104.4 45.9689 103.612 45.8467C102.856 45.7142 102.135 45.4275 101.495 45.0043L103.022 51.7219L97.5784 52.9603ZM100.178 39.3811C100.31 40.2803 100.759 41.1026 101.445 41.6995C101.72 41.9099 102.039 42.0555 102.378 42.1254C102.717 42.1952 103.067 42.1874 103.403 42.1027C103.715 42.0402 104.008 41.9053 104.258 41.709C104.508 41.5126 104.708 41.2603 104.843 40.9723C105.149 40.0712 105.149 39.0942 104.843 38.1931C104.712 37.2893 104.278 36.4568 103.612 35.8315C103.365 35.6264 103.074 35.4808 102.762 35.4059C102.45 35.331 102.125 35.3288 101.812 35.3995C101.481 35.4709 101.171 35.6161 100.904 35.8243C100.637 36.0325 100.421 36.2983 100.271 36.6019C99.9187 37.4894 99.8856 38.4718 100.178 39.3811Z" fill="white"/>
<path d="M112.59 39.8062L117.832 38.0854C118.111 38.5921 118.545 38.9959 119.07 39.2374C119.636 39.4011 120.234 39.4142 120.807 39.2753C121.379 39.1364 121.905 38.8503 122.332 38.4454C122.451 38.3183 122.538 38.164 122.585 37.9959C122.631 37.8278 122.636 37.6509 122.598 37.4806C122.555 37.2856 122.454 37.1081 122.31 36.9708C122.165 36.8335 121.982 36.7428 121.785 36.7102C120.971 36.6209 120.15 36.6209 119.337 36.7102C117.971 36.8263 116.598 36.8263 115.233 36.7102C114.433 36.5941 113.684 36.2519 113.073 35.7238C112.421 35.1595 111.97 34.3981 111.79 33.555C111.609 32.7118 111.708 31.8328 112.072 31.051C112.492 30.2144 113.144 29.5168 113.951 29.0422C115.1 28.3897 116.347 27.93 117.645 27.6814C118.883 27.3453 120.164 27.19 121.446 27.2206C122.252 27.2724 123.033 27.5195 123.722 27.9406C124.455 28.4357 125.078 29.0781 125.55 29.827L120.51 31.4902C120.322 31.115 120.009 30.8172 119.625 30.6478C119.1 30.4599 118.53 30.4348 117.99 30.5758C117.514 30.6422 117.071 30.8621 116.73 31.2022C116.622 31.3181 116.544 31.4587 116.502 31.6118C116.461 31.765 116.458 31.9259 116.493 32.0806C116.532 32.2508 116.621 32.4052 116.75 32.5235C116.879 32.6417 117.04 32.7183 117.213 32.743C118.018 32.8364 118.832 32.8194 119.632 32.6926C121.02 32.4914 122.429 32.472 123.822 32.635C124.699 32.7588 125.52 33.1367 126.184 33.7222C126.784 34.2666 127.202 34.9833 127.379 35.7742C127.564 36.6222 127.496 37.5056 127.185 38.3158C126.804 39.2749 126.141 40.0958 125.284 40.6702C124.021 41.4957 122.606 42.0611 121.122 42.3334C118.554 42.919 116.634 42.9694 115.362 42.4846C114.123 41.9896 113.128 41.0278 112.59 39.8062Z" fill="white"/>
<path d="M130.173 22H136.084V26.536L134.997 35.6584H131.339L130.173 26.5504V22ZM130.461 37.0336H135.976V41.9152H130.461V37.0336Z" fill="white"/>
</g>
<path d="M93.2504 93.9276H93.1208C89.8808 92.6676 87.944 91.4436 86.936 89.9676C86.147 90.1171 85.3307 90.0059 84.6104 89.6508C83.7667 89.2378 83.0667 88.5806 82.6016 87.7644C82.3572 87.952 82.0693 88.0748 81.7646 88.1214C81.46 88.1679 81.1486 88.1368 80.8592 88.0308C79.9719 87.6988 79.2147 87.0905 78.6992 86.2956C78.3768 86.5358 77.976 86.6463 77.576 86.6052C75.416 86.4324 72.536 82.17 72.3272 77.634C72.3251 77.5383 72.3598 77.4453 72.424 77.3744C72.4883 77.3034 72.5774 77.2597 72.6728 77.2524C72.7201 77.2505 72.7673 77.2579 72.8117 77.2742C72.8562 77.2905 72.8969 77.3155 72.9317 77.3476C72.9665 77.3797 72.9946 77.4183 73.0144 77.4613C73.0342 77.5042 73.0454 77.5507 73.0472 77.598C73.2488 81.918 76.0064 85.7556 77.6408 85.8852C77.7598 85.8986 77.8801 85.8883 77.9951 85.8549C78.11 85.8215 78.2172 85.7658 78.3104 85.6908C77.7473 84.6643 77.3937 83.5361 77.2701 82.3718C77.1465 81.2075 77.2554 80.0303 77.5904 78.9084C78.2096 76.7484 78.7568 75.8988 79.4192 76.0284C80.6576 76.338 80.492 81.0684 79.8368 84.1572C79.7376 84.7143 79.5322 85.2471 79.232 85.7268C79.6565 86.4385 80.2972 86.996 81.0608 87.318C81.2644 87.3955 81.4858 87.4129 81.699 87.3683C81.9121 87.3236 82.108 87.2187 82.2632 87.066C81.7016 85.6764 81.5432 83.7756 82.3496 81.3564C83.3576 78.1668 83.7896 78.0804 84.0128 78.0228C84.0968 78.0051 84.184 78.0106 84.2651 78.0384C84.3462 78.0663 84.4183 78.1157 84.4736 78.1812C85.1432 78.9372 84.344 83.8908 83.5088 86.3388C83.411 86.6334 83.2755 86.9141 83.1056 87.174C83.492 87.9527 84.1213 88.5846 84.8984 88.974C85.4082 89.2219 85.975 89.3288 86.54 89.2836C86.4752 89.1468 86.4176 89.01 86.36 88.866C85.7912 87.318 86.072 85.5396 87.2168 83.4084C87.9728 82.0044 88.592 81.342 89.168 81.342C89.3209 81.344 89.47 81.3899 89.5977 81.4741C89.7253 81.5583 89.8261 81.6774 89.888 81.8172C90.5144 82.9764 90.0608 86.7996 88.8224 88.7004C88.5325 89.1361 88.1292 89.4846 87.656 89.7084C88.6208 90.9756 90.4568 92.0916 93.416 93.2292C93.4604 93.2452 93.5011 93.2699 93.5358 93.3019C93.5704 93.3339 93.5983 93.3725 93.6178 93.4155C93.6372 93.4585 93.6479 93.5049 93.6491 93.552C93.6503 93.5992 93.6421 93.6461 93.6248 93.69C93.5969 93.765 93.5451 93.8288 93.4776 93.8717C93.41 93.9146 93.3302 93.9342 93.2504 93.9276ZM89.1608 82.0692C89.1608 82.0692 88.7504 82.0692 87.8432 83.7612C86.7992 85.6908 86.5328 87.282 87.0296 88.6212C87.0899 88.787 87.1621 88.9482 87.2456 89.1036C87.6356 88.9425 87.9672 88.6661 88.196 88.3116C89.204 86.7708 89.6864 83.6028 89.312 82.3644C89.2616 82.1124 89.1608 82.0692 89.1608 82.0692ZM83.9912 79.038C83.6015 79.8577 83.2788 80.7077 83.0264 81.5796C82.4742 83.0906 82.3791 84.7308 82.7528 86.2956L82.8176 86.1084C83.5737 83.8262 83.9768 81.4419 84.0128 79.038H83.9912ZM79.2536 76.77C79.1312 76.878 78.7784 77.3316 78.2816 79.0884C77.6941 81.06 77.8794 83.1814 78.8 85.0212C78.9478 84.6993 79.0565 84.3609 79.124 84.0132C79.8944 80.478 79.6784 77.2812 79.2752 76.77H79.2536Z" fill="white"/>
<path d="M120.625 131.669C119.474 131.681 118.341 131.385 117.342 130.813C117.259 130.763 117.2 130.684 117.176 130.591C117.151 130.498 117.164 130.399 117.212 130.316C117.236 130.275 117.267 130.24 117.305 130.212C117.343 130.183 117.385 130.163 117.431 130.152C117.477 130.14 117.524 130.138 117.571 130.145C117.617 130.152 117.662 130.169 117.702 130.193C120.272 131.698 123.591 130.647 124.275 129.545C124.325 129.476 124.36 129.398 124.378 129.315C124.397 129.232 124.398 129.147 124.383 129.063C123.069 129.139 121.767 128.768 120.69 128.012C118.854 126.867 118.71 126.521 118.724 126.248C118.728 126.169 118.752 126.093 118.795 126.027C118.838 125.961 118.898 125.908 118.969 125.873C119.689 125.513 122.936 127.004 124.29 127.897C124.452 128.004 124.602 128.13 124.736 128.271C125.268 128.15 125.747 127.863 126.104 127.45C126.305 127.214 126.45 126.936 126.529 126.637H126.385C125.233 126.752 124.081 126.255 122.85 125.117C122 124.34 121.676 123.8 121.784 123.375C121.817 123.256 121.883 123.148 121.975 123.065C122.067 122.982 122.18 122.927 122.302 122.907C123.296 122.655 125.758 123.706 126.759 124.808C126.982 125.047 127.141 125.34 127.22 125.657C128.163 125.218 129.157 124.218 130.33 122.583C130.358 122.544 130.392 122.511 130.433 122.486C130.473 122.46 130.518 122.443 130.564 122.435C130.611 122.427 130.659 122.428 130.706 122.439C130.752 122.449 130.796 122.469 130.834 122.497C130.912 122.553 130.964 122.637 130.98 122.731C130.996 122.825 130.975 122.922 130.921 123.001C129.56 124.902 128.422 125.982 127.285 126.421C127.226 126.953 127.008 127.455 126.658 127.861C126.244 128.343 125.699 128.695 125.089 128.876C125.123 129.048 125.123 129.225 125.088 129.396C125.054 129.568 124.985 129.732 124.887 129.877C124.282 130.906 122.54 131.669 120.625 131.669ZM119.984 126.673C120.229 126.853 120.574 127.09 121.071 127.393C121.845 127.915 122.735 128.241 123.663 128.343C122.504 127.648 121.27 127.088 119.984 126.673ZM122.497 123.613C122.704 124.002 122.991 124.343 123.339 124.613C124.405 125.6 125.377 126.053 126.313 125.938H126.543C126.492 125.715 126.383 125.509 126.226 125.341C125.218 124.203 123.001 123.497 122.497 123.613Z" fill="white"/>
<path d="M130.158 130.684L118.94 132.721L108.752 77.123L87.1089 81.0542L51.8289 143.694L55.6161 164.365L100.868 156.15L103.964 173.056L125.607 169.11L122.511 152.205L133.729 150.167L130.158 130.684ZM73.3857 141.03L92.1057 108.22L97.3257 136.689L73.3857 141.03Z" fill="#5FD37A"/>
<path d="M220.51 73.3493C220.17 69.8542 219.396 66.415 218.206 63.1109C216.983 59.9459 215.283 56.9862 213.166 54.3341C210.661 51.2486 207.548 48.7099 204.022 46.8749C200.182 44.7677 195.09 43.3013 188.744 42.4757C175.568 40.7573 165.301 43.0949 157.942 49.4885C150.584 55.8821 145.736 68.1221 143.398 86.2085C142.465 92.9679 142.224 99.8049 142.678 106.613C143.158 112.853 144.306 117.877 146.12 121.683C148.429 126.816 152.071 131.237 156.668 134.485C161.214 137.677 167.454 139.786 175.388 140.813C189.49 142.652 199.947 139.942 206.758 132.685C213.57 125.427 218.082 113.163 220.294 95.8925C221.278 88.4145 221.351 80.8448 220.51 73.3493Z" fill="#5FD37A"/>
<path d="M181.875 133.42C180.14 133.362 178.275 133.204 176.396 132.959C169.801 132.102 164.703 130.432 161.233 127.998C157.772 125.554 155.035 122.221 153.313 118.35L153.277 118.271C151.894 115.391 150.987 111.251 150.591 106.031C150.172 99.7608 150.394 93.4641 151.254 87.239C153.824 67.2806 159.13 58.9502 163.126 55.4798C167.792 51.4334 174.092 49.6046 182.372 49.8926C184.071 49.9502 185.871 50.1014 187.722 50.339C193.035 51.059 197.247 52.211 200.228 53.8382C202.804 55.1647 205.084 56.9992 206.931 59.231C208.547 61.2468 209.846 63.4975 210.783 65.9054C211.74 68.5904 212.359 71.3838 212.626 74.2214C213.394 81.0973 213.324 88.0409 212.418 94.8998C210.423 110.409 206.564 121.309 200.955 127.3C196.794 131.735 190.551 133.78 181.868 133.449L181.875 133.42Z" fill="#292929"/>
<path d="M195.966 73.5583L196.059 70.8295L194.382 70.2823C194.31 69.3594 194.161 68.4441 193.935 67.5463L195.375 66.4951L194.41 63.9319L192.654 64.0759C192.241 63.2521 191.759 62.4645 191.214 61.7215L192.121 60.2023L190.249 58.2079L188.679 59.0143C187.977 58.4105 187.226 57.8662 186.433 57.3871L186.685 55.6447L184.194 54.5143L183.056 55.8535C182.175 55.568 181.272 55.3561 180.356 55.2199L179.931 53.5135L177.195 53.4199L176.655 55.0903C175.733 55.1642 174.818 55.3135 173.919 55.5367L172.861 54.0967L170.298 55.0543L170.442 56.8111C169.618 57.2246 168.83 57.7063 168.087 58.2511L166.575 57.3367L164.574 59.2015L165.38 60.7783C164.775 61.4802 164.232 62.2343 163.76 63.0319L162.018 62.7655L160.88 65.2567L162.226 66.3943C161.934 67.2758 161.722 68.1819 161.593 69.1015L159.879 69.5335L159.786 72.2551L161.463 72.8023C161.534 73.7278 161.683 74.6455 161.91 75.5455L160.47 76.5895L161.434 79.1527L163.191 79.0087C163.6 79.8348 164.082 80.6227 164.631 81.3631L163.717 82.8823L165.589 84.8767L167.158 84.0775C167.861 84.679 168.612 85.2209 169.405 85.6975L169.146 87.4399L171.637 88.5703L172.782 87.2383C173.665 87.5222 174.571 87.7317 175.489 87.8647L175.914 89.5783L178.642 89.6719L179.182 87.9943C180.108 87.924 181.026 87.7747 181.926 87.5479L182.97 88.9879L185.533 88.0303L185.396 86.2807C186.217 85.862 187.004 85.3805 187.75 84.8407L189.262 85.7479L191.264 83.8831L190.465 82.3063C191.068 81.6069 191.608 80.8551 192.078 80.0599L193.82 80.3191L194.958 77.8279L193.618 76.6903C193.905 75.8101 194.115 74.9067 194.245 73.9903L195.966 73.5583ZM177.534 82.3927C175.401 82.3148 173.339 81.6069 171.609 80.3583C169.878 79.1097 168.556 77.3764 167.81 75.3773C167.064 73.3781 166.926 71.2026 167.415 69.1254C167.904 67.0482 168.998 65.1624 170.557 63.706C172.117 62.2497 174.073 61.288 176.179 60.9425C178.285 60.5969 180.446 60.8829 182.389 61.7644C184.333 62.6459 185.971 64.0834 187.098 65.8954C188.226 67.7074 188.791 69.8127 188.722 71.9455C188.677 73.3672 188.351 74.7658 187.763 76.0612C187.176 77.3565 186.338 78.5231 185.299 79.4938C184.259 80.4645 183.038 81.2203 181.705 81.7178C180.373 82.2153 178.955 82.4447 177.534 82.3927Z" fill="#5FD37A"/>
<path opacity="0.3" d="M207.327 123.655L207.529 121.812L206.42 121.366C206.418 120.739 206.365 120.112 206.262 119.494L207.262 118.853L206.751 117.075H205.556C205.32 116.496 205.033 115.94 204.699 115.411L205.376 114.432L204.224 112.992L203.122 113.453C202.676 113.011 202.194 112.607 201.682 112.243L201.949 111.077L200.329 110.184L199.479 111.041C198.901 110.803 198.303 110.613 197.694 110.472L197.492 109.299L195.656 109.09L195.202 110.199C194.577 110.202 193.953 110.259 193.338 110.371L192.697 109.349L190.918 109.875V111.07C190.34 111.309 189.783 111.598 189.255 111.934L188.276 111.214L186.836 112.366L187.297 113.467C186.858 113.914 186.456 114.396 186.094 114.907L184.928 114.648L184.042 116.268L184.892 117.111C184.651 117.691 184.46 118.29 184.323 118.903L183.142 119.098L182.948 120.934L184.05 121.395C184.05 122.018 184.106 122.639 184.215 123.252L183.2 123.893L183.718 125.671H184.921C185.161 126.247 185.45 126.801 185.785 127.327L185.065 128.307L186.217 129.747L187.333 129.279C187.776 129.722 188.258 130.124 188.773 130.481L188.521 131.669L190.141 132.555L190.983 131.712C191.563 131.945 192.16 132.13 192.769 132.267L192.978 133.447L194.814 133.649L195.26 132.547C195.897 132.547 196.533 132.494 197.161 132.389L197.802 133.404L199.573 132.886V131.691C200.152 131.447 200.71 131.158 201.243 130.827L202.208 131.547L203.648 130.387L203.18 129.286C203.624 128.839 204.031 128.358 204.397 127.846L205.556 128.105L206.449 126.485L205.599 125.65C205.831 125.07 206.016 124.473 206.154 123.864L207.327 123.655ZM198.061 122.935C197.756 123.493 197.293 123.947 196.73 124.242C196.167 124.536 195.529 124.656 194.898 124.588C194.266 124.52 193.669 124.265 193.182 123.858C192.695 123.45 192.339 122.907 192.161 122.297C191.983 121.687 191.989 121.038 192.18 120.432C192.37 119.826 192.736 119.29 193.231 118.892C193.726 118.494 194.329 118.252 194.961 118.197C195.594 118.141 196.229 118.274 196.786 118.579C197.531 118.99 198.083 119.678 198.322 120.495C198.561 121.311 198.467 122.188 198.061 122.935Z" fill="#5FD37A"/>
<path d="M217.53 92.5368L215.37 91.0536C215.157 90.2825 214.868 89.5348 214.506 88.8216L215.053 86.6616L211.942 83.328L209.782 83.7312C209.097 83.3232 208.374 82.9832 207.622 82.716L206.29 80.4696L201.733 80.3184L200.25 82.4784C199.477 82.6877 198.729 82.9773 198.018 83.3424L195.858 82.788L192.524 85.9056L192.927 88.0656C192.513 88.7477 192.173 89.4717 191.912 90.2256L189.673 91.5576L189.514 96.1152L191.674 97.5984C191.884 98.3751 192.173 99.128 192.538 99.8448L191.991 102.005L195.102 105.338L197.262 104.942C197.947 105.35 198.671 105.69 199.422 105.958L200.746 108.197L205.311 108.355L206.787 106.195C207.566 105.984 208.321 105.694 209.041 105.331L211.201 105.878L214.534 102.768L214.138 100.608C214.548 99.9234 214.888 99.1999 215.154 98.448L217.393 97.116L217.53 92.5368ZM203.324 99.4632C202.311 99.4284 201.33 99.0939 200.507 98.5019C199.684 97.91 199.055 97.0872 198.699 96.1377C198.343 95.1881 198.277 94.1545 198.509 93.1674C198.741 92.1803 199.261 91.2841 200.002 90.5923C200.743 89.9004 201.673 89.4439 202.673 89.2804C203.674 89.117 204.701 89.254 205.624 89.674C206.547 90.0941 207.324 90.7784 207.858 91.6404C208.392 92.5024 208.658 93.5034 208.623 94.5168C208.574 95.8747 207.989 97.1579 206.996 98.0851C206.003 99.0123 204.682 99.5079 203.324 99.4632Z" fill="#C0F2CB"/>
<path d="M233.161 56.1559L233.535 55.2559C233.79 55.1124 234.031 54.9461 234.255 54.7591H235.09L236.07 53.3191L235.753 52.5487C235.874 52.2921 235.971 52.0244 236.041 51.7495L236.761 51.0871L236.458 49.3951L235.551 49.0207C235.409 48.7653 235.243 48.5242 235.054 48.3007V47.4655L233.65 46.4863L232.873 46.8103C232.589 46.7102 232.294 46.6425 231.994 46.6087L231.332 45.8887L229.647 46.1911L229.266 47.0983C228.998 47.2368 228.745 47.4007 228.51 47.5879H227.682L226.702 49.0279L227.019 49.7983C226.922 50.0835 226.855 50.3778 226.818 50.6767L226.098 51.3463L226.4 53.0311L227.307 53.4055C227.445 53.6621 227.609 53.9034 227.797 54.1255V54.9535L229.237 55.9327L230.007 55.6159C230.295 55.7095 230.592 55.7746 230.893 55.8103L231.555 56.5303L233.161 56.1559ZM229.561 51.4903C229.493 51.1146 229.538 50.7272 229.69 50.377C229.842 50.0269 230.095 49.7297 230.416 49.5232C230.737 49.3167 231.112 49.2101 231.494 49.2169C231.876 49.2236 232.247 49.3435 232.56 49.5613C232.874 49.7791 233.116 50.085 233.255 50.4404C233.395 50.7957 233.426 51.1845 233.345 51.5575C233.263 51.9305 233.073 52.271 232.798 52.5359C232.523 52.8007 232.176 52.9781 231.8 53.0455C231.297 53.1337 230.78 53.0198 230.36 52.7286C229.941 52.4373 229.654 51.9923 229.561 51.4903Z" fill="#F1FCF3"/>
<path d="M213.44 51.3825L212.886 50.9145C214.074 49.4409 215.542 48.2173 217.206 47.3145L217.544 47.9481C215.962 48.8095 214.567 49.9769 213.44 51.3825Z" fill="#5FD37A"/>
<path d="M219.186 47.2847L218.905 46.6223C221.564 45.4669 224.471 45.0013 227.358 45.2687L227.286 45.9887C224.52 45.728 221.732 46.1739 219.186 47.2847Z" fill="#5FD37A"/>
<path d="M217.825 52.2677L217.234 51.8645C218.969 49.5221 221.494 47.8876 224.341 47.2637L224.478 47.9837C221.817 48.5647 219.455 50.0858 217.825 52.2677Z" fill="#5FD37A"/>
<path d="M170.046 121.59C169.948 121.587 169.854 121.546 169.786 121.475L168.282 119.919C167.514 119.85 166.755 119.71 166.014 119.502L163.659 120.539C163.607 120.567 163.549 120.582 163.49 120.582C163.431 120.582 163.373 120.567 163.321 120.539L159.375 117.925C159.324 117.892 159.283 117.845 159.255 117.791C159.228 117.737 159.214 117.676 159.217 117.615V115.052C158.735 114.45 158.311 113.804 157.95 113.123L155.926 112.345C155.87 112.323 155.82 112.287 155.781 112.241C155.742 112.194 155.715 112.138 155.703 112.079L154.767 107.442C154.755 107.383 154.758 107.321 154.775 107.263C154.793 107.205 154.825 107.153 154.868 107.111L156.423 105.606C156.498 104.839 156.637 104.081 156.841 103.338L155.804 100.983C155.776 100.932 155.761 100.873 155.761 100.814C155.761 100.755 155.776 100.697 155.804 100.645L158.418 96.6994C158.45 96.6475 158.496 96.6053 158.551 96.5774C158.605 96.5495 158.666 96.537 158.727 96.541L161.29 96.577C161.891 96.0931 162.537 95.6687 163.22 95.3098L164.005 93.2866C164.026 93.2305 164.06 93.1806 164.106 93.1415C164.151 93.1025 164.205 93.0756 164.264 93.0634L168.901 92.1274C168.96 92.1144 169.022 92.1168 169.08 92.1344C169.138 92.1521 169.19 92.1844 169.232 92.2282L170.737 93.7834C171.506 93.8536 172.268 93.9934 173.012 94.201L175.359 93.1642C175.412 93.1359 175.472 93.121 175.532 93.121C175.592 93.121 175.652 93.1359 175.705 93.1642L179.643 95.7778C179.693 95.8128 179.734 95.8591 179.763 95.9129C179.792 95.9667 179.807 96.0265 179.809 96.0874L179.766 98.6506C180.25 99.2528 180.676 99.8988 181.04 100.58L183.056 101.365C183.112 101.386 183.162 101.42 183.201 101.466C183.24 101.511 183.267 101.566 183.279 101.624L184.222 106.261C184.234 106.32 184.23 106.381 184.213 106.439C184.195 106.497 184.164 106.549 184.122 106.592L182.559 108.104C182.487 108.869 182.348 109.625 182.142 110.365L183.178 112.719C183.207 112.773 183.222 112.832 183.222 112.892C183.222 112.953 183.207 113.012 183.178 113.065L180.601 116.975C180.567 117.024 180.522 117.064 180.469 117.091C180.417 117.119 180.358 117.133 180.298 117.133L177.728 117.097C177.125 117.574 176.482 117.999 175.806 118.364L175.021 120.387C175 120.444 174.964 120.495 174.917 120.534C174.87 120.573 174.814 120.6 174.754 120.611L170.118 121.59H170.046ZM165.992 118.71C166.025 118.703 166.06 118.703 166.093 118.71C166.87 118.936 167.669 119.083 168.476 119.149C168.563 119.159 168.643 119.197 168.706 119.257L170.146 120.769L174.394 119.912L175.158 117.939C175.193 117.86 175.254 117.794 175.33 117.752C176.05 117.38 176.728 116.934 177.354 116.42C177.42 116.364 177.505 116.336 177.591 116.341L180.09 116.377L182.48 112.777L181.472 110.487C181.443 110.408 181.443 110.322 181.472 110.243C181.695 109.464 181.842 108.666 181.911 107.859C181.919 107.772 181.957 107.691 182.019 107.629L183.531 106.189L182.674 101.941L180.709 101.178C180.624 101.147 180.555 101.085 180.514 101.005C180.141 100.287 179.695 99.6089 179.182 98.9818C179.131 98.916 179.103 98.8349 179.103 98.7514V96.2458L175.503 93.8554L173.221 94.8634C173.139 94.8926 173.05 94.8926 172.969 94.8634C172.189 94.6381 171.388 94.491 170.578 94.4242C170.492 94.4141 170.411 94.3762 170.348 94.3162L168.908 92.8042L164.66 93.6682L163.904 95.6698C163.874 95.7524 163.815 95.8213 163.738 95.8642C163.016 96.2352 162.336 96.6817 161.708 97.1962C161.677 97.2243 161.641 97.2458 161.601 97.2595C161.561 97.2731 161.519 97.2785 161.478 97.2754L158.979 97.2394L156.582 100.839L157.59 103.129C157.613 103.177 157.625 103.23 157.625 103.284C157.625 103.337 157.613 103.39 157.59 103.439C157.376 104.199 157.237 104.977 157.172 105.764C157.165 105.852 157.127 105.934 157.064 105.995L155.552 107.435L156.416 111.683L158.374 112.446C158.462 112.482 158.533 112.549 158.576 112.633C158.947 113.346 159.391 114.02 159.901 114.642C159.954 114.706 159.983 114.788 159.98 114.872V117.378L163.58 119.768L165.87 118.76C165.907 118.736 165.949 118.719 165.992 118.71ZM169.527 116.377C167.794 116.375 166.094 115.904 164.607 115.014C163.121 114.123 161.903 112.846 161.084 111.319C160.265 109.792 159.875 108.071 159.956 106.34C160.037 104.609 160.585 102.932 161.542 101.487C162.458 100.102 163.718 98.9774 165.199 98.2245C166.68 97.4715 168.33 97.1158 169.99 97.192C171.649 97.2682 173.26 97.7737 174.665 98.6592C176.071 99.5447 177.222 100.78 178.007 102.244C178.792 103.708 179.184 105.35 179.144 107.011C179.104 108.671 178.634 110.293 177.779 111.717C176.924 113.142 175.715 114.32 174.268 115.137C172.822 115.953 171.188 116.381 169.527 116.377ZM162.147 101.883C161.178 103.346 160.664 105.062 160.671 106.817C160.677 108.571 161.204 110.284 162.184 111.739C163.163 113.194 164.553 114.326 166.176 114.991C167.799 115.657 169.583 115.826 171.302 115.478C173.022 115.129 174.599 114.279 175.835 113.034C177.071 111.79 177.911 110.206 178.247 108.485C178.583 106.763 178.402 104.98 177.725 103.362C177.048 101.743 175.907 100.362 174.445 99.3922C173.475 98.7434 172.387 98.2929 171.243 98.0669C170.098 97.8409 168.92 97.8438 167.777 98.0754C166.634 98.307 165.548 98.7628 164.581 99.4164C163.615 100.07 162.788 100.908 162.147 101.883Z" fill="#DFF9E5"/>
<path d="M307.199 137.177L295.895 135.65L303.368 79.6271L281.567 76.6895L228.683 125.376L225.903 146.205L271.472 152.354L269.197 169.397L290.999 172.334L293.274 155.299L304.578 156.825L307.199 137.177ZM250.016 129.458L277.923 104.021L274.093 132.705L250.016 129.458Z" fill="#5FD37A"/>
<path d="M284.375 171.802H284.281C284.188 171.784 284.105 171.73 284.051 171.652C283.997 171.574 283.976 171.478 283.993 171.384L300.841 79.2672C300.86 79.1747 300.914 79.0932 300.992 79.0395C301.07 78.9859 301.165 78.9643 301.259 78.9792C301.352 78.9967 301.435 79.0504 301.489 79.1287C301.543 79.2069 301.563 79.3033 301.547 79.3968L284.735 171.506C284.718 171.59 284.673 171.665 284.607 171.718C284.542 171.772 284.459 171.802 284.375 171.802Z" fill="#263238"/>
<path d="M299.278 80.8155C299.273 80.9721 299.205 81.12 299.09 81.2267C298.975 81.3333 298.823 81.39 298.666 81.3843C298.51 81.3786 298.362 81.3109 298.255 81.1961C298.149 81.0814 298.092 80.9289 298.098 80.7723C298.103 80.6157 298.171 80.4678 298.286 80.3612C298.401 80.2545 298.553 80.1978 298.71 80.2035C298.866 80.2092 299.014 80.2769 299.121 80.3917C299.227 80.5065 299.284 80.6589 299.278 80.8155Z" fill="white"/>
<path d="M296.881 93.2725C296.876 93.3892 296.838 93.5019 296.769 93.5965C296.701 93.6911 296.606 93.7633 296.497 93.804C296.387 93.8446 296.268 93.852 296.154 93.825C296.041 93.798 295.938 93.738 295.858 93.6525C295.779 93.567 295.727 93.4598 295.708 93.3446C295.689 93.2293 295.705 93.1112 295.754 93.005C295.802 92.8988 295.881 92.8095 295.981 92.7481C296.08 92.6868 296.195 92.6563 296.312 92.6605C296.39 92.6633 296.466 92.6814 296.536 92.7136C296.607 92.7459 296.67 92.7918 296.723 92.8486C296.776 92.9055 296.817 92.9722 296.844 93.0449C296.871 93.1176 296.884 93.195 296.881 93.2725Z" fill="white"/>
<path d="M294.483 105.749C294.48 105.827 294.462 105.903 294.43 105.973C294.398 106.044 294.352 106.108 294.295 106.16C294.238 106.213 294.172 106.254 294.099 106.281C294.026 106.308 293.949 106.321 293.871 106.318C293.794 106.316 293.718 106.299 293.647 106.267C293.577 106.236 293.513 106.191 293.46 106.134C293.407 106.078 293.366 106.012 293.339 105.94C293.312 105.867 293.3 105.79 293.302 105.713C293.304 105.635 293.322 105.558 293.353 105.487C293.385 105.415 293.431 105.351 293.488 105.297C293.545 105.244 293.612 105.202 293.685 105.174C293.758 105.147 293.836 105.134 293.914 105.137C294.07 105.145 294.217 105.213 294.324 105.327C294.43 105.442 294.487 105.593 294.483 105.749Z" fill="white"/>
<path d="M289.76 118.71C289.744 118.855 289.675 118.988 289.567 119.085C289.459 119.182 289.318 119.235 289.173 119.235C289.028 119.235 288.888 119.182 288.779 119.085C288.671 118.988 288.602 118.855 288.586 118.71C288.577 118.628 288.586 118.544 288.611 118.465C288.636 118.386 288.678 118.313 288.733 118.251C288.789 118.189 288.856 118.14 288.932 118.106C289.008 118.072 289.09 118.055 289.173 118.055C289.256 118.055 289.338 118.072 289.414 118.106C289.49 118.14 289.558 118.189 289.613 118.251C289.668 118.313 289.71 118.386 289.735 118.465C289.761 118.544 289.769 118.628 289.76 118.71Z" fill="#263238"/>
<path d="M289.681 130.639C289.679 130.717 289.662 130.793 289.63 130.865C289.598 130.936 289.552 130.999 289.495 131.052C289.438 131.105 289.371 131.147 289.298 131.173C289.224 131.2 289.147 131.212 289.069 131.208C288.952 131.203 288.84 131.165 288.745 131.096C288.65 131.028 288.578 130.933 288.537 130.823C288.497 130.714 288.489 130.595 288.516 130.481C288.543 130.368 288.603 130.265 288.689 130.185C288.774 130.106 288.882 130.053 288.997 130.035C289.112 130.016 289.23 130.032 289.336 130.081C289.443 130.129 289.532 130.208 289.593 130.308C289.655 130.407 289.685 130.522 289.681 130.639Z" fill="white"/>
<path d="M287.283 143.095C287.28 143.212 287.243 143.326 287.175 143.422C287.107 143.517 287.013 143.59 286.904 143.632C286.794 143.674 286.675 143.682 286.561 143.656C286.447 143.63 286.343 143.57 286.263 143.485C286.183 143.4 286.13 143.293 286.11 143.177C286.091 143.062 286.107 142.943 286.155 142.837C286.204 142.73 286.283 142.64 286.382 142.579C286.482 142.517 286.597 142.486 286.714 142.491C286.87 142.496 287.017 142.563 287.123 142.676C287.23 142.789 287.287 142.94 287.283 143.095Z" fill="white"/>
<path d="M284.886 155.552C284.88 155.709 284.812 155.858 284.698 155.966C284.583 156.074 284.431 156.132 284.274 156.128C284.196 156.125 284.12 156.107 284.049 156.075C283.979 156.043 283.915 155.997 283.862 155.94C283.809 155.883 283.768 155.816 283.741 155.744C283.714 155.671 283.702 155.594 283.705 155.516C283.707 155.438 283.725 155.362 283.757 155.291C283.788 155.221 283.834 155.157 283.89 155.104C283.947 155.051 284.013 155.009 284.086 154.982C284.158 154.954 284.236 154.941 284.313 154.944C284.391 154.946 284.467 154.964 284.538 154.995C284.608 155.027 284.672 155.073 284.725 155.129C284.778 155.186 284.82 155.252 284.847 155.325C284.875 155.397 284.888 155.475 284.886 155.552Z" fill="white"/>
<path d="M282.481 168.015C282.477 168.131 282.438 168.244 282.369 168.339C282.301 168.433 282.206 168.505 282.097 168.546C281.987 168.587 281.868 168.594 281.755 168.567C281.641 168.54 281.538 168.48 281.458 168.395C281.379 168.309 281.327 168.202 281.308 168.087C281.289 167.972 281.305 167.853 281.354 167.747C281.403 167.641 281.482 167.552 281.581 167.49C281.68 167.429 281.795 167.399 281.912 167.403C281.99 167.405 282.067 167.422 282.138 167.454C282.209 167.486 282.273 167.532 282.326 167.589C282.379 167.646 282.42 167.713 282.446 167.786C282.473 167.859 282.485 167.937 282.481 168.015Z" fill="white"/>
<path d="M289.17 119.033C289.089 119.033 289.01 119.005 288.947 118.954C288.884 118.903 288.841 118.831 288.824 118.752C288.813 118.706 288.812 118.658 288.82 118.611C288.828 118.564 288.845 118.519 288.871 118.479C288.896 118.439 288.929 118.404 288.968 118.377C289.007 118.35 289.051 118.33 289.098 118.32L290.883 117.938C290.93 117.928 290.979 117.927 291.026 117.935C291.073 117.944 291.118 117.962 291.158 117.988C291.199 118.014 291.233 118.048 291.26 118.088C291.287 118.127 291.306 118.172 291.315 118.219C291.325 118.266 291.325 118.313 291.316 118.36C291.307 118.406 291.289 118.45 291.263 118.49C291.237 118.529 291.203 118.563 291.164 118.59C291.125 118.616 291.081 118.635 291.034 118.644L289.249 119.026L289.17 119.033Z" fill="white"/>
<path d="M295.138 112.402C294.289 114.605 293.568 116.855 292.978 119.142C292.438 121.683 292.41 127.371 292.41 127.371" fill="#263238"/>
<path d="M292.41 127.731C292.314 127.728 292.223 127.688 292.157 127.619C292.09 127.551 292.051 127.46 292.05 127.364C292.05 127.134 292.093 121.604 292.633 119.07C293.219 116.764 293.94 114.494 294.793 112.273C294.807 112.225 294.831 112.182 294.863 112.144C294.895 112.106 294.935 112.076 294.98 112.054C295.024 112.032 295.073 112.02 295.122 112.018C295.172 112.016 295.221 112.024 295.267 112.042C295.313 112.06 295.355 112.087 295.391 112.122C295.426 112.157 295.453 112.198 295.472 112.244C295.49 112.29 295.499 112.34 295.497 112.389C295.495 112.439 295.484 112.487 295.462 112.532C294.614 114.718 293.893 116.951 293.302 119.221C292.777 121.698 292.741 127.314 292.734 127.371C292.734 127.461 292.701 127.547 292.641 127.614C292.581 127.68 292.499 127.722 292.41 127.731Z" fill="#263238"/>
<path d="M160.765 189.874C161.766 173.746 159.93 144.42 190.249 148.308C222.742 152.463 213.447 190.464 213.447 190.464L160.765 189.874Z" fill="#292929"/>
<path d="M181.688 180.182C188.997 180.182 194.922 174.257 194.922 166.948C194.922 159.64 188.997 153.715 181.688 153.715C174.379 153.715 168.454 159.64 168.454 166.948C168.454 174.257 174.379 180.182 181.688 180.182Z" fill="#C0F2CB"/>
<path d="M183.43 153.737C177.159 152.671 170.471 157.287 169.801 161.967L194.648 164.256C193.77 158.921 188.398 154.587 183.43 153.737Z" fill="#191919"/>
<path d="M191.818 166.618C191.638 170.082 189.752 172.796 187.606 172.681C185.461 172.566 183.862 169.678 184.006 166.201C184.15 162.723 186.073 160.023 188.218 160.138C190.364 160.254 191.991 163.162 191.818 166.618Z" fill="#191919"/>
<path d="M181.688 180.903C178.928 180.903 176.231 180.085 173.936 178.552C171.641 177.018 169.853 174.839 168.797 172.29C167.741 169.74 167.464 166.934 168.003 164.227C168.541 161.521 169.87 159.034 171.821 157.083C173.773 155.132 176.259 153.803 178.966 153.264C181.673 152.726 184.478 153.002 187.028 154.058C189.578 155.114 191.757 156.903 193.29 159.198C194.823 161.492 195.642 164.19 195.642 166.95C195.638 170.649 194.167 174.196 191.551 176.812C188.935 179.428 185.388 180.899 181.688 180.903ZM181.688 154.443C179.213 154.443 176.793 155.177 174.735 156.553C172.677 157.928 171.073 159.883 170.126 162.17C169.179 164.457 168.932 166.973 169.415 169.401C169.899 171.828 171.091 174.058 172.842 175.808C174.593 177.558 176.823 178.749 179.251 179.231C181.679 179.713 184.195 179.464 186.482 178.516C188.768 177.568 190.722 175.963 192.096 173.904C193.47 171.845 194.203 169.425 194.202 166.95C194.198 163.633 192.878 160.453 190.532 158.108C188.186 155.763 185.005 154.445 181.688 154.443Z" fill="#5FD37A"/>
<path opacity="0.3" d="M209.754 189.47H209.667C209.621 189.46 209.577 189.441 209.539 189.413C209.5 189.386 209.467 189.351 209.442 189.311C209.418 189.27 209.401 189.225 209.394 189.179C209.387 189.132 209.389 189.084 209.401 189.038C209.401 188.945 211.719 179.181 209.336 169.31C209.313 169.215 209.329 169.114 209.38 169.03C209.432 168.947 209.514 168.887 209.61 168.864C209.705 168.841 209.806 168.857 209.89 168.908C209.973 168.959 210.033 169.042 210.056 169.137C212.483 179.217 210.143 189.11 210.121 189.204C210.1 189.284 210.051 189.354 209.985 189.402C209.918 189.451 209.836 189.475 209.754 189.47Z" fill="white"/>
<path opacity="0.3" d="M207.745 163.896C207.676 163.895 207.608 163.875 207.55 163.838C207.491 163.801 207.444 163.749 207.414 163.687C206.519 161.709 205.372 159.855 204.001 158.172C203.941 158.098 203.913 158.004 203.922 157.909C203.932 157.815 203.978 157.728 204.051 157.668C204.088 157.637 204.13 157.614 204.176 157.6C204.222 157.586 204.27 157.581 204.317 157.586C204.365 157.59 204.411 157.605 204.453 157.627C204.495 157.65 204.532 157.681 204.562 157.718C205.967 159.45 207.145 161.354 208.069 163.385C208.089 163.427 208.101 163.473 208.104 163.52C208.106 163.567 208.099 163.614 208.083 163.659C208.067 163.703 208.042 163.744 208.01 163.778C207.978 163.813 207.939 163.84 207.896 163.86C207.849 163.882 207.797 163.894 207.745 163.896Z" fill="white"/>
<path d="M93.2865 265.531H93.0201C92.0654 265.504 91.1603 265.099 90.5041 264.405C89.8479 263.711 89.4942 262.785 89.5209 261.83C89.5477 260.875 89.9526 259.97 90.6466 259.314C91.3407 258.658 92.267 258.304 93.2217 258.331H93.2865C95.3673 258.331 100.371 255.804 110.84 239.301C111.118 238.863 111.487 238.49 111.923 238.208C112.358 237.925 112.85 237.741 113.363 237.666C113.877 237.592 114.401 237.629 114.898 237.776C115.396 237.923 115.856 238.175 116.247 238.516C124.469 245.584 133.435 251.735 142.988 256.862C143.43 257.063 143.827 257.351 144.155 257.71C144.482 258.068 144.734 258.489 144.895 258.948C145.056 259.406 145.122 259.892 145.09 260.377C145.058 260.861 144.928 261.334 144.708 261.768C144.489 262.201 144.183 262.585 143.811 262.897C143.439 263.209 143.008 263.443 142.543 263.584C142.078 263.725 141.59 263.77 141.107 263.718C140.624 263.665 140.157 263.515 139.734 263.277C130.855 258.559 122.463 252.979 114.678 246.616C105.901 259.828 99.3921 265.531 93.2865 265.531Z" fill="#292929"/>
<path d="M115.563 237.869H115.254C114.688 237.787 114.178 237.485 113.835 237.027C113.492 236.569 113.345 235.995 113.425 235.429C113.936 231.829 113.303 218.415 108.759 207.975C108.558 207.514 108.524 206.996 108.663 206.513C108.802 206.029 109.106 205.609 109.523 205.325C119.387 198.608 140.396 197.801 141.289 197.773C141.573 197.763 141.855 197.81 142.121 197.91C142.387 198.009 142.63 198.161 142.837 198.354C143.045 198.548 143.212 198.781 143.329 199.04C143.446 199.298 143.511 199.577 143.521 199.861C143.53 200.144 143.484 200.427 143.384 200.693C143.284 200.958 143.133 201.202 142.939 201.409C142.745 201.616 142.512 201.783 142.254 201.901C141.996 202.018 141.717 202.083 141.433 202.093C141.239 202.093 122.871 202.813 113.439 207.997C117.457 218.393 118.371 231.346 117.702 236.033C117.624 236.545 117.366 237.011 116.973 237.348C116.581 237.685 116.081 237.87 115.563 237.869Z" fill="#292929"/>
<path d="M119.192 235.076C117.752 231.685 111.272 232.067 107.478 234.975C105.447 236.523 102.697 241.196 102.438 242.895C102.351 243.299 102.364 243.718 102.475 244.115C102.587 244.513 102.793 244.878 103.076 245.178C103.359 245.478 103.711 245.705 104.102 245.84C104.492 245.974 104.91 246.011 105.318 245.948C107.802 245.732 111.207 242.125 111.207 242.125C108.939 244.35 111.87 245.919 116.247 242.701C118.638 240.908 120.798 238.871 119.192 235.076Z" fill="#5FD37A"/>
<path d="M243.032 190.824C242.999 190.831 242.964 190.831 242.931 190.824C242.885 190.812 242.842 190.79 242.805 190.761C242.768 190.731 242.736 190.695 242.714 190.653C242.691 190.611 242.677 190.565 242.672 190.518C242.667 190.471 242.672 190.423 242.686 190.378C243.644 187.037 244.688 184.999 246.063 183.898C245.848 183.123 245.888 182.3 246.178 181.55C246.514 180.676 247.106 179.923 247.878 179.39C247.668 179.164 247.519 178.888 247.445 178.588C247.37 178.289 247.373 177.975 247.453 177.677C247.713 176.775 248.253 175.978 248.994 175.402C248.726 175.103 248.58 174.715 248.583 174.314C248.583 172.154 252.55 168.9 257.05 168.281C257.146 168.267 257.243 168.293 257.32 168.351C257.397 168.409 257.447 168.495 257.461 168.59C257.474 168.686 257.449 168.783 257.391 168.86C257.333 168.937 257.247 168.987 257.151 169.001C252.874 169.584 249.289 172.68 249.303 174.314C249.302 174.558 249.395 174.793 249.562 174.97C250.531 174.313 251.621 173.856 252.768 173.624C253.915 173.393 255.097 173.393 256.244 173.623C258.454 174.048 259.354 174.516 259.254 175.186C259.052 176.446 254.35 176.712 251.197 176.338C250.632 176.286 250.082 176.127 249.577 175.87C248.898 176.353 248.393 177.042 248.137 177.835C248.075 178.045 248.076 178.268 248.138 178.478C248.201 178.688 248.323 178.874 248.49 179.016C249.829 178.296 251.708 178.037 254.192 178.584C257.454 179.304 257.576 179.7 257.655 179.938C257.681 180.022 257.683 180.111 257.661 180.196C257.639 180.281 257.595 180.358 257.533 180.42C256.849 181.14 251.845 180.802 249.332 180.182C249.029 180.113 248.736 180.004 248.461 179.858C247.717 180.31 247.145 180.997 246.834 181.81C246.626 182.336 246.568 182.909 246.668 183.466C246.796 183.389 246.928 183.319 247.064 183.257C248.554 182.537 250.354 182.666 252.579 183.617C254.019 184.243 254.739 184.805 254.811 185.374C254.814 185.52 254.778 185.664 254.706 185.79C254.633 185.917 254.528 186.022 254.401 186.094C253.299 186.814 249.454 186.713 247.453 185.647C246.993 185.397 246.609 185.026 246.344 184.574C245.17 185.654 244.22 187.577 243.356 190.594C243.33 190.659 243.285 190.716 243.228 190.756C243.17 190.797 243.102 190.821 243.032 190.824ZM246.934 184.106C247.135 184.479 247.44 184.784 247.813 184.985C249.44 185.849 252.637 186.043 253.832 185.561C254.077 185.46 254.113 185.381 254.113 185.381C254.113 185.381 254.077 184.978 252.313 184.222C250.297 183.358 248.713 183.235 247.395 183.847C247.236 183.924 247.082 184.01 246.934 184.106ZM249.339 179.376L249.519 179.426C251.864 179.967 254.277 180.149 256.676 179.966C255.825 179.651 254.948 179.41 254.055 179.246C252.504 178.826 250.864 178.871 249.339 179.376ZM250.246 175.33C250.579 175.449 250.925 175.526 251.276 175.56C254.876 175.985 258.037 175.488 258.476 175.034C258.354 174.926 257.871 174.617 256.086 174.278C254.076 173.878 251.99 174.253 250.246 175.33Z" fill="white"/>
<path d="M149.302 264.329C149.778 264.177 149.619 263.717 149.086 263.717H139.338C120.776 261.751 107.809 264.386 115.981 265.005C124.153 265.625 115.405 265.495 109.436 267.756C103.467 270.017 153.824 270.585 158.396 267.756C162.601 265.149 142.722 266.438 149.302 264.329Z" fill="#191919"/>
<path d="M219.099 267.202L134.283 264.387L130.762 182.148L230.922 184.388L219.099 267.202Z" fill="#5FD37A"/>
<path d="M160.765 265.625C160.674 265.626 160.587 265.592 160.52 265.53C160.453 265.469 160.412 265.385 160.405 265.294L153.608 182.696C153.602 182.601 153.633 182.507 153.695 182.434C153.757 182.362 153.844 182.316 153.939 182.307C154.034 182.303 154.127 182.335 154.199 182.396C154.271 182.458 154.317 182.544 154.328 182.638L161.161 265.237C161.165 265.284 161.159 265.332 161.145 265.377C161.13 265.422 161.107 265.464 161.076 265.5C161.045 265.536 161.008 265.566 160.965 265.587C160.923 265.609 160.877 265.622 160.83 265.625H160.765Z" fill="#263238"/>
<path d="M219.099 267.201L241.894 263.731L249.073 187.26L230.922 184.387L219.099 267.201Z" fill="#5FD37A"/>
<path opacity="0.2" d="M219.099 267.201L241.894 263.731L249.073 187.26L230.922 184.387L219.099 267.201Z" fill="black"/>
<path d="M141.526 248.54L139.438 199.674C139.387 198.467 139.584 197.262 140.016 196.134C140.449 195.005 141.109 193.978 141.954 193.115C142.8 192.252 143.813 191.571 144.932 191.116C146.051 190.66 147.252 190.438 148.46 190.465L211.863 191.905C213.112 191.933 214.34 192.226 215.467 192.763C216.594 193.301 217.595 194.071 218.402 195.024C219.21 195.977 219.806 197.089 220.152 198.289C220.498 199.489 220.586 200.749 220.41 201.985L213.382 251.19C213.078 253.345 211.99 255.312 210.325 256.714C208.66 258.115 206.536 258.853 204.361 258.786L150.08 256.986C147.852 256.917 145.732 256.008 144.145 254.442C142.559 252.876 141.623 250.768 141.526 248.54Z" fill="#262626"/>
<path d="M148.381 205.461L158.187 205.771L158.108 208.298L151.966 208.103L151.909 209.99L157.604 210.17L157.525 212.589L151.83 212.402L151.758 214.742L158.072 214.943L157.986 217.622L147.999 217.305L148.381 205.461Z" fill="white"/>
<path d="M160.009 217.688L160.383 205.844L166.489 206.038C167.364 206.034 168.236 206.16 169.074 206.413C169.668 206.612 170.176 207.008 170.514 207.536C170.764 207.92 170.932 208.352 171.008 208.804C171.084 209.257 171.067 209.72 170.956 210.165C170.845 210.61 170.644 211.028 170.365 211.392C170.085 211.756 169.734 212.058 169.333 212.281C168.924 212.491 168.484 212.637 168.03 212.713C168.364 212.82 168.682 212.976 168.973 213.173C169.183 213.368 169.371 213.586 169.535 213.821C169.72 214.045 169.884 214.287 170.024 214.541L171.687 218.033L167.555 217.897L165.711 214.217C165.565 213.866 165.35 213.548 165.078 213.281C164.819 213.094 164.511 212.989 164.192 212.979H163.868L163.717 217.781L160.009 217.688ZM163.911 210.761L165.452 210.812C165.779 210.792 166.104 210.746 166.424 210.675C166.665 210.638 166.884 210.512 167.036 210.322C167.192 210.13 167.28 209.892 167.288 209.645C167.302 209.481 167.278 209.315 167.22 209.161C167.161 209.006 167.069 208.867 166.95 208.753C166.548 208.493 166.073 208.369 165.596 208.4L163.983 208.349L163.911 210.761Z" fill="white"/>
<path d="M172.882 218.069L173.257 206.225L179.355 206.419C180.231 206.414 181.102 206.54 181.94 206.793C182.535 206.99 183.044 207.387 183.38 207.917C183.745 208.494 183.917 209.172 183.87 209.853C183.872 210.428 183.718 210.992 183.425 211.487C183.133 211.981 182.711 212.387 182.206 212.661C181.797 212.871 181.357 213.017 180.903 213.093C181.236 213.201 181.551 213.356 181.839 213.554C182.054 213.744 182.246 213.959 182.408 214.195C182.592 214.42 182.756 214.661 182.898 214.915L184.561 218.4L180.428 218.27L178.585 214.591C178.438 214.24 178.222 213.922 177.951 213.655C177.694 213.461 177.381 213.355 177.058 213.353H176.742L176.583 218.162L172.882 218.069ZM176.778 211.142L178.326 211.185C178.653 211.173 178.978 211.13 179.298 211.056C179.537 211.02 179.754 210.894 179.902 210.703C180.064 210.514 180.153 210.274 180.154 210.026C180.17 209.862 180.148 209.697 180.091 209.542C180.034 209.387 179.942 209.248 179.823 209.133C179.422 208.867 178.943 208.743 178.462 208.781L176.857 208.73L176.778 211.142Z" fill="white"/>
<path d="M185.151 212.569C185.096 211.743 185.224 210.914 185.527 210.143C185.829 209.372 186.299 208.678 186.902 208.11C187.505 207.542 188.226 207.114 189.014 206.858C189.802 206.603 190.637 206.524 191.458 206.629C192.288 206.602 193.114 206.741 193.888 207.039C194.662 207.337 195.369 207.788 195.966 208.364C196.498 208.978 196.9 209.693 197.148 210.466C197.396 211.24 197.483 212.056 197.406 212.864C197.411 214.041 197.135 215.201 196.599 216.248C196.114 217.105 195.388 217.801 194.511 218.25C193.478 218.744 192.335 218.962 191.192 218.884C190.053 218.893 188.926 218.647 187.894 218.164C187.016 217.687 186.3 216.96 185.835 216.076C185.291 214.991 185.054 213.779 185.151 212.569ZM188.809 212.699C188.701 213.606 188.907 214.524 189.392 215.298C189.619 215.551 189.895 215.757 190.203 215.901C190.511 216.046 190.845 216.127 191.185 216.14C191.525 216.152 191.864 216.096 192.182 215.975C192.5 215.854 192.79 215.671 193.035 215.435C193.569 214.627 193.822 213.665 193.755 212.699C193.852 211.831 193.64 210.957 193.158 210.229C192.939 209.978 192.67 209.776 192.366 209.638C192.063 209.5 191.734 209.429 191.401 209.43C191.065 209.406 190.728 209.458 190.415 209.583C190.102 209.707 189.821 209.901 189.594 210.15C189.048 210.885 188.771 211.785 188.809 212.699Z" fill="white"/>
<path d="M199.256 218.941L199.63 207.09L205.729 207.284C206.604 207.283 207.475 207.409 208.314 207.659C208.906 207.861 209.414 208.256 209.754 208.782C210.117 209.36 210.289 210.038 210.243 210.719C210.247 211.294 210.094 211.86 209.801 212.356C209.508 212.852 209.086 213.259 208.58 213.534C208.168 213.738 207.73 213.881 207.277 213.959C207.61 214.068 207.925 214.226 208.213 214.427C208.428 214.616 208.619 214.831 208.782 215.067C208.967 215.292 209.131 215.533 209.271 215.787L210.935 219.279L206.802 219.15L204.958 215.463C204.812 215.114 204.596 214.798 204.325 214.535C204.067 214.341 203.755 214.233 203.432 214.225H203.115L202.957 219.035L199.256 218.941ZM203.151 212.007L204.699 212.058C205.027 212.045 205.352 212.002 205.671 211.928C205.91 211.89 206.125 211.764 206.276 211.575C206.446 211.375 206.536 211.118 206.528 210.855C206.544 210.692 206.522 210.528 206.465 210.374C206.407 210.221 206.316 210.083 206.197 209.97C205.795 209.704 205.316 209.58 204.836 209.617L203.23 209.567L203.151 212.007Z" fill="white"/>
<path d="M205.081 239.065C204.946 239.067 204.812 239.041 204.687 238.987C204.563 238.934 204.452 238.855 204.361 238.755L198.198 232.009L191.545 238.085C191.361 238.254 191.117 238.343 190.867 238.332C190.617 238.321 190.382 238.212 190.213 238.028L184.05 231.281L177.397 237.358C177.213 237.527 176.969 237.616 176.719 237.605C176.469 237.594 176.234 237.485 176.065 237.301L169.894 230.554L163.249 236.631C163.152 236.719 163.038 236.786 162.914 236.828C162.79 236.87 162.659 236.886 162.529 236.876C162.279 236.861 162.044 236.75 161.874 236.566L155.71 229.827L149.065 235.897C148.879 236.066 148.634 236.155 148.383 236.144C148.132 236.133 147.896 236.024 147.726 235.839C147.642 235.748 147.577 235.641 147.534 235.524C147.492 235.407 147.473 235.283 147.479 235.159C147.485 235.035 147.516 234.914 147.569 234.802C147.623 234.69 147.698 234.59 147.79 234.507L155.134 227.789C155.32 227.62 155.565 227.531 155.816 227.542C156.067 227.553 156.303 227.662 156.474 227.847L162.637 234.593L169.282 228.517C169.471 228.351 169.716 228.263 169.966 228.272C170.217 228.285 170.452 228.396 170.622 228.581L176.785 235.328L183.438 229.251C183.528 229.166 183.635 229.101 183.752 229.058C183.868 229.015 183.992 228.996 184.116 229.001C184.24 229.006 184.361 229.036 184.474 229.089C184.586 229.142 184.686 229.217 184.77 229.309L190.933 236.055L197.586 229.978C197.77 229.809 198.014 229.721 198.264 229.731C198.513 229.742 198.749 229.852 198.918 230.036L205.801 237.509C205.924 237.647 206.004 237.817 206.032 238C206.06 238.182 206.034 238.368 205.958 238.536C205.881 238.704 205.758 238.846 205.602 238.945C205.446 239.044 205.265 239.096 205.081 239.093V239.065Z" fill="white"/>
<path d="M91.1409 268.951L86.6337 266.798L82.6161 247.236L84.7977 244.838L91.1409 268.951Z" fill="#5FD37A"/>
<path d="M91.1409 268.951L97.1241 265.451L91.9977 249.338L84.7977 244.838L91.1409 268.951Z" fill="#5FD37A"/>
<path opacity="0.2" d="M91.1409 268.951L97.1241 265.451L91.9977 249.338L84.7977 244.838L91.1409 268.951Z" fill="black"/>
<path d="M189.241 272.509H188.744C187.789 272.483 186.884 272.079 186.227 271.386C185.57 270.692 185.216 269.766 185.241 268.811C185.267 267.857 185.671 266.951 186.364 266.294C187.058 265.637 187.984 265.283 188.938 265.309C194.482 265.489 206.218 262.083 212.929 255.574C213.334 255.177 213.827 254.881 214.369 254.71C225.738 251.297 229.964 258.188 230.137 258.483L223.945 262.148C223.967 262.194 223.993 262.237 224.024 262.277C223.959 262.184 222.346 260.117 217.22 261.385C208.803 269.06 195.886 272.509 189.241 272.509Z" fill="#292929"/>
<path d="M188.802 277.289L175.69 276.469L174.661 252.291L192.279 252.946L188.802 277.289Z" fill="#5FD37A"/>
<path d="M188.802 277.289L191.869 274.236L193.77 259.166L192.279 252.945L188.802 277.289Z" fill="#5FD37A"/>
<path opacity="0.2" d="M188.802 277.289L191.869 274.236L193.77 259.166L192.279 252.945L188.802 277.289Z" fill="black"/>
<path d="M264.776 268.138C264.305 268.137 263.848 267.983 263.473 267.699C255.985 262.011 245.869 251.909 241.988 242.167C241.93 242.026 241.889 241.879 241.866 241.728C239.972 230.467 238.165 206.772 238.086 205.771C238.064 205.488 238.099 205.203 238.188 204.932C238.277 204.662 238.418 204.412 238.604 204.197C238.978 203.761 239.511 203.492 240.084 203.449C240.657 203.406 241.223 203.593 241.658 203.968C242.094 204.342 242.363 204.875 242.406 205.447C242.406 205.685 244.256 229.611 246.099 240.778C249.973 250.253 260.499 259.98 266.101 264.257C266.462 264.531 266.727 264.911 266.86 265.343C266.993 265.776 266.987 266.24 266.842 266.669C266.697 267.098 266.421 267.47 266.053 267.734C265.685 267.998 265.243 268.139 264.79 268.138H264.776Z" fill="#292929"/>
<path d="M274.763 269.225C273.092 269.225 271.199 268.469 269.132 266.978C268.668 266.642 268.357 266.136 268.266 265.57C268.176 265.004 268.314 264.425 268.65 263.961C268.986 263.497 269.492 263.186 270.058 263.095C270.624 263.005 271.203 263.143 271.667 263.479C273.452 264.768 274.424 264.919 274.763 264.919C275.335 264.919 275.885 265.147 276.29 265.552C276.695 265.957 276.923 266.506 276.923 267.079C276.923 267.652 276.695 268.201 276.29 268.606C275.885 269.011 275.335 269.239 274.763 269.239V269.225Z" fill="#263238"/>
<path d="M269.737 266.914C272.048 260.052 281.523 261.406 284.792 262.428C287.584 263.239 290.262 264.4 292.762 265.884C294.526 267.036 294.555 268.973 292.201 270.075C289.321 271.428 282.006 270.226 282.006 270.226C285.778 271.875 282.006 274.546 275.374 271.925C273.222 271.076 268.923 269.434 269.737 266.914Z" fill="#5FD37A"/>
<path d="M246.74 208.709C245.883 214.541 241.052 218.839 237.121 218.263C233.19 217.687 233.031 212.503 233.888 206.643C234.745 200.782 236.3 196.563 240.231 197.139C244.163 197.715 247.597 202.899 246.74 208.709Z" fill="#292929"/>
<path d="M151.714 185.452C152.04 185.452 152.305 185.188 152.305 184.862C152.305 184.536 152.04 184.271 151.714 184.271C151.388 184.271 151.124 184.536 151.124 184.862C151.124 185.188 151.388 185.452 151.714 185.452Z" fill="#263238"/>
<path d="M157.712 189.11C157.712 189.227 157.677 189.341 157.613 189.438C157.548 189.535 157.455 189.611 157.348 189.655C157.24 189.7 157.121 189.712 157.006 189.689C156.892 189.666 156.787 189.61 156.704 189.527C156.622 189.445 156.565 189.34 156.543 189.225C156.52 189.111 156.532 188.992 156.576 188.884C156.621 188.776 156.697 188.684 156.794 188.619C156.891 188.554 157.005 188.52 157.122 188.52C157.278 188.52 157.428 188.582 157.539 188.692C157.65 188.803 157.712 188.953 157.712 189.11Z" fill="#263238"/>
<path d="M158.375 258.879C158.375 258.996 158.34 259.11 158.275 259.207C158.21 259.305 158.118 259.38 158.01 259.425C157.902 259.47 157.783 259.481 157.669 259.459C157.554 259.436 157.449 259.38 157.367 259.297C157.284 259.214 157.228 259.109 157.205 258.995C157.182 258.88 157.194 258.761 157.239 258.654C157.283 258.546 157.359 258.453 157.456 258.389C157.553 258.324 157.667 258.289 157.784 258.289C157.941 258.289 158.091 258.351 158.202 258.462C158.312 258.573 158.375 258.723 158.375 258.879Z" fill="#263238"/>
<path d="M163.782 263.133C163.782 263.25 163.747 263.364 163.682 263.461C163.617 263.558 163.525 263.634 163.417 263.679C163.309 263.724 163.191 263.735 163.076 263.712C162.962 263.69 162.856 263.633 162.774 263.551C162.691 263.468 162.635 263.363 162.612 263.249C162.589 263.134 162.601 263.015 162.646 262.907C162.69 262.8 162.766 262.707 162.863 262.642C162.96 262.578 163.074 262.543 163.191 262.543C163.348 262.543 163.498 262.605 163.609 262.716C163.719 262.827 163.782 262.977 163.782 263.133Z" fill="#263238"/>
<path d="M60.008 270.211C58.9714 270.162 57.959 269.882 57.0455 269.389C56.1321 268.897 55.3409 268.206 54.7304 267.367C54.7005 267.328 54.6787 267.284 54.6664 267.237C54.6542 267.189 54.6517 267.14 54.6591 267.092C54.6665 267.043 54.6836 266.997 54.7095 266.956C54.7353 266.914 54.7693 266.878 54.8094 266.851C54.8495 266.823 54.8949 266.803 54.9428 266.793C54.9906 266.784 55.04 266.784 55.0878 266.794C55.1357 266.804 55.181 266.823 55.221 266.851C55.2611 266.879 55.295 266.915 55.3208 266.956C56.6672 268.9 59.6408 269.93 60.9368 269.318C61.0666 269.263 61.1823 269.179 61.2752 269.073C60.6203 268.785 60.0465 268.34 59.6045 267.777C59.1625 267.215 58.8658 266.552 58.7408 265.847C58.5752 264.933 58.4456 263.688 59.1944 263.529C60.2312 263.299 61.5848 265.797 62.0744 267.691C62.1631 268.004 62.1948 268.331 62.168 268.656C62.5833 268.779 63.0201 268.814 63.4496 268.756C63.6431 268.741 63.8315 268.686 64.0025 268.595C64.1736 268.503 64.3237 268.376 64.4432 268.224C63.9693 267.866 63.5763 267.412 63.2897 266.893C63.0031 266.373 62.8294 265.798 62.78 265.207C62.5064 263.234 62.7152 262.895 62.9312 262.723C63.0012 262.669 63.0847 262.636 63.1724 262.627C63.2602 262.618 63.3487 262.634 63.428 262.672C64.1984 262.996 65.1272 265.79 65.3072 267.374C65.3288 267.539 65.3288 267.706 65.3072 267.871C65.6176 267.99 65.9467 268.053 66.2792 268.058C66.8897 268.082 67.4936 267.924 68.0144 267.604C67.9136 267.539 67.82 267.468 67.7264 267.396C67.0064 266.755 66.6752 265.732 66.8048 264.278C66.9056 263.148 67.1576 262.528 67.6112 262.334C67.7575 262.275 67.9178 262.26 68.0724 262.291C68.2271 262.322 68.3695 262.397 68.4824 262.507C68.9684 263.043 69.3316 263.68 69.5467 264.371C69.7619 265.062 69.8237 265.792 69.728 266.51C69.6655 266.809 69.5403 267.091 69.3608 267.338C70.6856 267.568 72.5432 267.194 74.1488 266.798C74.1961 266.787 74.2451 266.785 74.2931 266.792C74.3412 266.8 74.3872 266.817 74.4287 266.842C74.4701 266.868 74.5061 266.901 74.5347 266.94C74.5633 266.98 74.5838 267.024 74.5952 267.072C74.6065 267.119 74.6085 267.168 74.6008 267.216C74.5932 267.264 74.5762 267.31 74.5508 267.351C74.5254 267.393 74.4921 267.429 74.4528 267.457C74.4134 267.486 74.3689 267.507 74.3216 267.518C72.3704 268 70.268 268.396 68.7848 267.964C68.0608 268.515 67.1742 268.809 66.2648 268.799C65.8612 268.794 65.4616 268.719 65.084 268.576C64.9165 268.835 64.6918 269.052 64.4271 269.211C64.1625 269.37 63.865 269.465 63.5576 269.491C63.0164 269.56 62.4665 269.514 61.9448 269.354C61.7768 269.637 61.5253 269.861 61.2248 269.995C60.8386 270.151 60.4242 270.224 60.008 270.211ZM59.3888 264.249C59.2892 264.739 59.3089 265.245 59.4464 265.725C59.548 266.301 59.7868 266.844 60.1428 267.307C60.4988 267.771 60.9613 268.142 61.4912 268.389C61.4811 268.218 61.4521 268.049 61.4048 267.885C60.8432 265.826 59.7632 264.408 59.3888 264.249ZM63.3992 263.623C63.4039 264.119 63.4448 264.615 63.5216 265.106C63.601 265.984 63.9887 266.805 64.616 267.424C64.4388 266.095 64.0268 264.808 63.3992 263.623ZM67.928 262.996C67.928 262.996 67.6544 263.133 67.5536 264.336C67.4528 265.538 67.6616 266.366 68.2232 266.848C68.3561 266.956 68.5011 267.048 68.6552 267.122C68.8445 266.919 68.9784 266.671 69.044 266.402C69.1722 265.269 68.8661 264.129 68.1872 263.212C68.036 263.025 67.9496 262.996 67.928 262.996Z" fill="#262626"/>
<path d="M165.387 275.655L167.338 272.271L165.387 268.887H163.299L164.48 272.271L163.299 275.655H165.387Z" fill="#263238"/>
<path d="M163.436 274.035C163.195 274.05 162.954 274.016 162.727 273.935C162.5 273.853 162.292 273.726 162.117 273.561C161.941 273.396 161.8 273.197 161.705 272.975C161.609 272.754 161.559 272.515 161.559 272.274C161.559 272.033 161.609 271.795 161.705 271.573C161.8 271.352 161.941 271.153 162.117 270.988C162.292 270.823 162.5 270.696 162.727 270.614C162.954 270.533 163.195 270.499 163.436 270.514L160.124 269.852L159.238 272.53L160.722 274.791L163.436 274.035Z" fill="#263238"/>
<path d="M163.724 268.887H159.814L157.863 272.271L159.814 275.655H163.724L165.675 272.271L163.724 268.887ZM161.773 274.035C161.424 274.036 161.082 273.934 160.791 273.741C160.5 273.548 160.273 273.273 160.138 272.951C160.003 272.629 159.967 272.274 160.035 271.931C160.102 271.588 160.269 271.273 160.516 271.026C160.762 270.779 161.076 270.61 161.419 270.541C161.761 270.473 162.116 270.507 162.439 270.64C162.762 270.774 163.038 271 163.232 271.29C163.426 271.58 163.53 271.922 163.53 272.271C163.53 272.737 163.345 273.185 163.015 273.516C162.686 273.846 162.239 274.033 161.773 274.035Z" fill="#5FD37A"/>
<path d="M301.482 268.656L300.034 266.144L301.482 263.631H303.03L302.158 266.144L303.03 268.656H301.482Z" fill="#5FD37A"/>
<path d="M302.929 267.453C303.108 267.466 303.289 267.442 303.459 267.383C303.629 267.323 303.785 267.229 303.917 267.106C304.049 266.984 304.155 266.835 304.227 266.67C304.299 266.505 304.336 266.326 304.336 266.146C304.336 265.966 304.299 265.787 304.227 265.622C304.155 265.457 304.049 265.308 303.917 265.186C303.785 265.063 303.629 264.969 303.459 264.909C303.289 264.85 303.108 264.826 302.929 264.839L305.391 264.35L306.046 266.337L304.952 268.014L302.929 267.453Z" fill="#5FD37A"/>
<path d="M302.72 263.631H305.6L307.04 266.144L305.6 268.656H302.72L301.28 266.144L302.72 263.631ZM304.16 267.454C304.42 267.455 304.674 267.38 304.89 267.237C305.106 267.094 305.276 266.889 305.376 266.65C305.476 266.411 305.503 266.147 305.453 265.892C305.404 265.638 305.279 265.404 305.096 265.22C304.913 265.036 304.68 264.91 304.426 264.859C304.171 264.808 303.907 264.833 303.667 264.932C303.428 265.031 303.222 265.199 303.078 265.415C302.934 265.631 302.857 265.884 302.857 266.144C302.856 266.316 302.889 266.487 302.955 266.646C303.02 266.806 303.117 266.951 303.239 267.072C303.36 267.194 303.505 267.291 303.665 267.356C303.824 267.422 303.995 267.455 304.167 267.454H304.16Z" fill="#263238"/>
<path d="M247.561 271.996H250.815C251.223 271.994 251.613 271.831 251.9 271.542C252.187 271.253 252.349 270.862 252.349 270.455C252.349 270.047 252.187 269.657 251.9 269.368C251.613 269.079 251.223 268.916 250.815 268.914H247.561C247.152 268.914 246.76 269.076 246.471 269.365C246.182 269.654 246.02 270.046 246.02 270.455C246.02 270.864 246.182 271.255 246.471 271.544C246.76 271.833 247.152 271.996 247.561 271.996Z" fill="#263238"/>
<path d="M242.326 269.088C242.628 268.539 243.084 268.09 243.639 267.797C244.193 267.503 244.82 267.379 245.444 267.438C246.068 267.498 246.661 267.738 247.15 268.131C247.639 268.523 248.002 269.05 248.195 269.646C248.388 270.243 248.403 270.883 248.236 271.487C248.07 272.091 247.731 272.634 247.26 273.047C246.789 273.461 246.207 273.728 245.586 273.815C244.966 273.902 244.333 273.806 243.766 273.537C242.988 273.136 242.399 272.443 242.13 271.609C241.86 270.776 241.93 269.869 242.326 269.088Z" fill="#5FD37A"/>
<path d="M243.204 273.536L244.097 273.957L247.198 267.379L246.305 266.959L243.204 273.536Z" fill="#263238"/>
</svg>
