<svg
width="30"
height="30"
viewBox="0 0 20 20"
fill="none"
xmlns="http://www.w3.org/2000/svg"
>
<path
fill-rule="evenodd"
clip-rule="evenodd"
d="M3.29576 4.21756C2.5 5.31283 2.5 6.87522 2.5 10C2.5 13.1248 2.5 14.6872 3.29576 15.7824C3.55276 16.1362 3.86383 16.4472 4.21756 16.7042C5.31283 17.5 6.87522 17.5 10 17.5C13.1248 17.5 14.6872 17.5 15.7824 16.7042C16.1362 16.4472 16.4472 16.1362 16.7042 15.7824C17.5 14.6872 17.5 13.1248 17.5 10C17.5 6.87522 17.5 5.31283 16.7042 4.21756C16.4472 3.86383 16.1362 3.55276 15.7824 3.29576C14.6872 2.5 13.1248 2.5 10 2.5C6.87522 2.5 5.31283 2.5 4.21756 3.29576C3.86383 3.55276 3.55276 3.86383 3.29576 4.21756ZM14.6323 7.91689C14.8626 7.65972 14.8407 7.2646 14.5836 7.03435C14.3264 6.80411 13.9313 6.82594 13.701 7.08311L10.8934 10.2191C10.3245 10.8545 9.94133 11.2802 9.61377 11.5555C9.30172 11.8178 9.11844 11.875 8.95833 11.875C8.79823 11.875 8.61495 11.8178 8.3029 11.5555C7.97533 11.2802 7.5922 10.8545 7.02329 10.2191L6.29898 9.41008C6.06874 9.15291 5.67361 9.13108 5.41644 9.36132C5.15927 9.59157 5.13744 9.98669 5.36769 10.2439L6.12294 11.0874C6.65281 11.6793 7.09479 12.173 7.49863 12.5124C7.92582 12.8715 8.3866 13.125 8.95833 13.125C9.53006 13.125 9.99084 12.8715 10.418 12.5124C10.8219 12.173 11.2638 11.6793 11.7937 11.0874L14.6323 7.91689Z"
fill="#23963E"
/>
</svg>