<svg xmlns="http://www.w3.org/2000/svg" width="18" height="18" viewBox="0 0 18 18" fill="none">
  <path d="M13.1667 6.5L10.359 9.63598C9.24645 10.8787 8.69017 11.5 7.95833 11.5C7.2265 11.5 6.67021 10.8787 5.55764 9.63598L4.83333 8.82697M9 16.5C5.87522 16.5 4.31283 16.5 3.21756 15.7042C2.86383 15.4472 2.55276 15.1362 2.29576 14.7824C1.5 13.6872 1.5 12.1248 1.5 9C1.5 5.87522 1.5 4.31283 2.29576 3.21756C2.55276 2.86383 2.86383 2.55276 3.21756 2.29576C4.31283 1.5 5.87522 1.5 9 1.5C12.1248 1.5 13.6872 1.5 14.7824 2.29576C15.1362 2.55276 15.4472 2.86383 15.7042 3.21756C16.5 4.31283 16.5 5.87522 16.5 9C16.5 12.1248 16.5 13.6872 15.7042 14.7824C15.4472 15.1362 15.1362 15.4472 14.7824 15.7042C13.6872 16.5 12.1248 16.5 9 16.5Z" stroke="#656565" stroke-width="1.4" stroke-linecap="round"/>
</svg>