<svg xmlns="http://www.w3.org/2000/svg" width="13" height="9" viewBox="0 0 13 9" fill="none">
  <path fill-rule="evenodd" clip-rule="evenodd" d="M9.19855 8.66529C9.04162 8.67751 8.88984 8.60977 8.78773 8.48997C8.74414 8.43884 8.69395 8.37974 8.63996 8.3158C8.46554 8.10923 8.56665 7.79192 8.81524 7.68565C8.92758 7.63763 9.03181 7.58692 9.12827 7.53484C9.40623 7.38477 9.24674 7.17095 8.94951 7.2779C8.43673 7.48654 7.94447 7.62563 7.46245 7.70511C6.47792 7.88394 5.57543 7.83426 4.80626 7.69517C4.22169 7.58589 3.71916 7.42692 3.29869 7.26796C3.06281 7.17855 2.80642 7.06926 2.55003 6.93017C2.53464 6.92023 2.51926 6.91278 2.50388 6.90533C2.48849 6.89788 2.47311 6.89043 2.45773 6.88049C2.44176 6.87276 2.43201 6.86503 2.42364 6.8573C2.41897 6.85299 2.40657 6.84522 2.40098 6.84219C2.33551 6.80666 2.28222 6.87792 2.33354 6.93192C2.53088 7.13953 2.88077 7.43793 3.42336 7.67408C3.65473 7.77478 3.74697 8.07081 3.58533 8.26458C3.51898 8.34411 3.45704 8.41798 3.40433 8.48066C3.29883 8.60614 3.14085 8.67752 2.97743 8.66445C2.14086 8.59753 1.51237 8.34099 1.06027 8.05879C0.33146 7.60386 0.086831 6.71145 0.188844 5.85839C0.367439 4.36494 0.810865 3.09266 1.15067 2.28944C1.41088 1.67437 1.85321 1.14685 2.45406 0.855317C3.44115 0.376373 4.25848 0.336275 4.43327 0.333384C4.45539 0.333018 4.47607 0.342843 4.49049 0.359617C4.5277 0.402867 4.50683 0.470319 4.45208 0.486344C3.50965 0.762178 2.83814 1.10508 2.41706 1.36466C2.33012 1.41826 2.38494 1.50739 2.47824 1.46586C3.57559 0.998913 4.44731 0.869756 4.80626 0.839951L4.82925 0.836185C4.88098 0.827652 4.92688 0.820081 4.9806 0.820081C5.60619 0.7406 6.31383 0.72073 7.05223 0.80021C7.33255 0.831654 7.61881 0.877079 7.90979 0.939324C8.26062 1.01437 8.38616 0.7601 8.04758 0.641419C7.95076 0.607482 7.85044 0.574068 7.7466 0.541407C7.67212 0.517984 7.64607 0.425181 7.69841 0.367244C7.71799 0.345555 7.74482 0.332937 7.77404 0.333586C7.96745 0.337883 8.76282 0.384594 9.72251 0.845491C10.3379 1.14106 10.7902 1.68112 11.0551 2.31036C11.3921 3.11087 11.8269 4.36594 12.0056 5.83747C12.1107 6.70372 11.8595 7.61015 11.1163 8.0675C10.6614 8.34746 10.0321 8.60039 9.19855 8.66529ZM4.18039 4.03907C3.59582 4.03907 3.13432 4.53582 3.13432 5.14186C3.13432 5.74791 3.60608 6.24466 4.18039 6.24466C4.76496 6.24466 5.22646 5.74791 5.22646 5.14186C5.23672 4.53582 4.76496 4.03907 4.18039 4.03907ZM7.92368 4.03907C7.33911 4.03907 6.87761 4.53582 6.87761 5.14186C6.87761 5.74791 7.34937 6.24466 7.92368 6.24466C8.50825 6.24466 8.96975 5.74791 8.96975 5.14186C8.96975 4.53582 8.50825 4.03907 7.92368 4.03907Z" fill="#23963E"/>
</svg>