<svg width="22" height="16" viewBox="0 0 22 16" fill="none" xmlns="http://www.w3.org/2000/svg">
<path fill-rule="evenodd" clip-rule="evenodd" d="M16.7688 15.9238C16.4787 15.9464 16.1982 15.8212 16.0094 15.5998C15.9288 15.5052 15.8361 15.396 15.7363 15.2778C15.4139 14.896 15.6008 14.3095 16.0603 14.113C16.2679 14.0243 16.4606 13.9305 16.6389 13.8343C17.1527 13.5569 16.8579 13.1616 16.3085 13.3593C15.3606 13.745 14.4507 14.0021 13.5597 14.149C11.7399 14.4795 10.0717 14.3877 8.64992 14.1306C7.56939 13.9286 6.6405 13.6348 5.86328 13.341C5.42727 13.1757 4.95335 12.9737 4.47943 12.7166C4.451 12.6982 4.42256 12.6844 4.39413 12.6707C4.36569 12.6569 4.33726 12.6431 4.30882 12.6247C4.27931 12.6105 4.26129 12.5962 4.24581 12.5819C4.23718 12.5739 4.21426 12.5596 4.20393 12.5539C4.0829 12.4883 3.9844 12.62 4.07928 12.7198C4.44404 13.1035 5.09079 13.6551 6.09373 14.0916C6.5214 14.2778 6.69191 14.825 6.39311 15.1831C6.27048 15.3301 6.15598 15.4667 6.05856 15.5825C5.86354 15.8145 5.57152 15.9464 5.26946 15.9223C3.72312 15.7986 2.5614 15.3244 1.7257 14.8027C0.378555 13.9618 -0.0736246 12.3123 0.11494 10.7355C0.445061 7.9749 1.2647 5.62319 1.89282 4.13848C2.37379 3.00157 3.19142 2.02649 4.30204 1.4876C6.12661 0.602308 7.63739 0.52819 7.96048 0.522845C8.00137 0.522169 8.03958 0.540329 8.06626 0.571336C8.13503 0.651281 8.09646 0.775961 7.99525 0.805582C6.25322 1.31544 5.01199 1.94927 4.23364 2.4291C4.07295 2.52816 4.17427 2.69292 4.34673 2.61616C6.37511 1.75303 7.98643 1.51429 8.64992 1.4592L8.69243 1.45224C8.78805 1.43647 8.87289 1.42247 8.97219 1.42247C10.1286 1.27556 11.4366 1.23883 12.8015 1.38574C13.3196 1.44386 13.8487 1.52783 14.3866 1.64289C15.0351 1.78161 15.2671 1.3116 14.6413 1.09223C14.4623 1.0295 14.2769 0.967734 14.0849 0.907362C13.9473 0.864066 13.8991 0.692526 13.9959 0.585433C14.0321 0.545343 14.0817 0.522018 14.1357 0.523218C14.4932 0.531162 15.9634 0.617504 17.7373 1.46944C18.8749 2.01578 19.7108 3.01404 20.2005 4.17715C20.8234 5.65684 21.6271 7.97676 21.9573 10.6968C22.1517 12.298 21.6874 13.9735 20.3137 14.8188C19.4728 15.3363 18.3096 15.8039 16.7688 15.9238ZM7.49305 7.37256C6.41252 7.37256 5.55946 8.29078 5.55946 9.411C5.55946 10.5312 6.43147 11.4494 7.49305 11.4494C8.57359 11.4494 9.42665 10.5312 9.42665 9.411C9.4456 8.29078 8.57359 7.37256 7.49305 7.37256ZM14.4123 7.37256C13.3317 7.37256 12.4787 8.29078 12.4787 9.411C12.4787 10.5312 13.3507 11.4494 14.4123 11.4494C15.4928 11.4494 16.3459 10.5312 16.3459 9.411C16.3459 8.29078 15.4928 7.37256 14.4123 7.37256Z" fill="#00BB34"/>
</svg>
