<svg width="34" height="34" viewBox="0 0 34 34" fill="none" xmlns="http://www.w3.org/2000/svg">
<g filter="url(#filter0_d_1654_30533)">
<g clip-path="url(#clip0_1654_30533)">
<rect width="32" height="32" rx="4" fill="#3D3D3D"/>
<line opacity="0.02" x1="54.2928" y1="9.09082" x2="9.29284" y2="55.0908" stroke="white" stroke-width="26"/>
<g opacity="0.1">
<path d="M3.40963 -1.33295C3.93966 -1.9626 4.94331 -1.36581 4.64323 -0.59943L3.71502 1.77119L5.66269 3.41069C6.29234 3.94072 5.69556 4.94437 4.92917 4.64429L2.55855 3.71608L0.919047 5.66375C0.389019 6.2934 -0.614631 5.69662 -0.314552 4.93023L0.613664 2.55962L-1.33401 0.920109C-1.96366 0.39008 -1.36688 -0.613569 -0.600492 -0.31349L1.77013 0.614726L3.40963 -1.33295Z" fill="#E9EDFD"/>
</g>
<path d="M10.7071 21.4773L11.0597 20.9919L11.0597 20.9919L10.7071 21.4773ZM9.96962 20.7398L9.48421 21.0925H9.48421L9.96962 20.7398ZM19.959 21.4773L19.6063 20.9919L19.6063 20.9919L19.959 21.4773ZM20.6964 20.7398L20.211 20.3872L20.6964 20.7398ZM9.96962 11.4879L9.48421 11.1353H9.48421L9.96962 11.4879ZM10.7071 10.7505L11.0597 11.2359L10.7071 10.7505ZM14.0069 10.7186C14.3382 10.7147 14.6036 10.4428 14.5996 10.1115C14.5957 9.78015 14.3238 9.51476 13.9925 9.51873L14.0069 10.7186ZM21.9282 17.4544C21.9321 17.1231 21.6667 16.8512 21.3354 16.8473C21.004 16.8433 20.7322 17.1087 20.7282 17.44L21.9282 17.4544ZM15.8647 18.7835L15.7985 18.1872L15.8647 18.7835ZM13.1182 18.5852L12.6939 19.0095L12.6939 19.0095L13.1182 18.5852ZM12.9199 15.8387L13.5162 15.9049L12.9199 15.8387ZM13.6846 14.2475L13.2603 13.8233L13.6846 14.2475ZM13.095 14.9435L12.5542 14.6836L13.095 14.9435ZM17.4558 18.0188L17.8801 18.443L17.4558 18.0188ZM16.7599 18.6084L17.0198 19.1492L16.7599 18.6084ZM15.333 21.5139C14.0697 21.5139 13.1705 21.5131 12.4758 21.4378C11.7924 21.3638 11.3785 21.2235 11.0597 20.9919L10.3544 21.9627C10.9118 22.3677 11.561 22.5457 12.3466 22.6308C13.1209 22.7147 14.0965 22.7139 15.333 22.7139V21.5139ZM8.73301 16.1139C8.73301 17.3504 8.73218 18.326 8.81607 19.1003C8.90118 19.8859 9.07921 20.5351 9.48421 21.0925L10.455 20.3872C10.2234 20.0684 10.0831 19.6545 10.0091 18.9711C9.93383 18.2764 9.93301 17.3772 9.93301 16.1139H8.73301ZM11.0597 20.9919C10.8277 20.8233 10.6236 20.6192 10.455 20.3872L9.48421 21.0925C9.72681 21.4264 10.0205 21.7201 10.3544 21.9627L11.0597 20.9919ZM15.333 22.7139C16.5696 22.7139 17.5452 22.7147 18.3195 22.6308C19.105 22.5457 19.7542 22.3677 20.3116 21.9627L19.6063 20.9919C19.2875 21.2235 18.8736 21.3638 18.1902 21.4378C17.4955 21.5131 16.5963 21.5139 15.333 21.5139V22.7139ZM20.211 20.3872C20.0424 20.6192 19.8383 20.8233 19.6063 20.9919L20.3116 21.9627C20.6455 21.7201 20.9392 21.4264 21.1818 21.0925L20.211 20.3872ZM9.93301 16.1139C9.93301 14.8506 9.93383 13.9513 10.0091 13.2567C10.0831 12.5733 10.2234 12.1594 10.455 11.8406L9.48421 11.1353C9.07921 11.6927 8.90118 12.3419 8.81607 13.1274C8.73218 13.9017 8.73301 14.8773 8.73301 16.1139H9.93301ZM10.3544 10.2651C10.0205 10.5077 9.72681 10.8013 9.48421 11.1353L10.455 11.8406C10.6236 11.6086 10.8277 11.4045 11.0597 11.2359L10.3544 10.2651ZM13.9925 9.51873C12.3798 9.53806 11.2365 9.6242 10.3544 10.2651L11.0597 11.2359C11.5863 10.8533 12.3347 10.7387 14.0069 10.7186L13.9925 9.51873ZM20.7282 17.44C20.7082 19.1122 20.5936 19.8605 20.211 20.3872L21.1818 21.0925C21.8227 20.2104 21.9088 19.0671 21.9282 17.4544L20.7282 17.44ZM20.6128 14.0133L17.0316 17.5945L17.8801 18.443L21.4613 14.8618L20.6128 14.0133ZM14.1089 14.6718L17.6901 11.0906L16.8415 10.2421L13.2603 13.8233L14.1089 14.6718ZM15.7985 18.1872C15.0154 18.2742 14.493 18.3308 14.1074 18.3183C13.7379 18.3064 13.6142 18.2327 13.5425 18.1609L12.6939 19.0095C13.0753 19.3909 13.5604 19.5013 14.0687 19.5177C14.5608 19.5336 15.1851 19.4627 15.931 19.3798L15.7985 18.1872ZM12.3235 15.7724C12.2407 16.5182 12.1698 17.1426 12.1857 17.6347C12.2021 18.143 12.3125 18.6281 12.6939 19.0095L13.5425 18.1609C13.4707 18.0892 13.397 17.9655 13.3851 17.596C13.3726 17.2104 13.4292 16.688 13.5162 15.9049L12.3235 15.7724ZM13.2603 13.8233C12.9618 14.1219 12.707 14.3655 12.5542 14.6836L13.6357 15.2034C13.6796 15.1121 13.7524 15.0283 14.1089 14.6718L13.2603 13.8233ZM13.5162 15.9049C13.5719 15.4039 13.5919 15.2947 13.6357 15.2034L12.5542 14.6836C12.4013 15.0016 12.3702 15.3527 12.3235 15.7724L13.5162 15.9049ZM17.0316 17.5945C16.6751 17.951 16.5913 18.0238 16.5 18.0676L17.0198 19.1492C17.3378 18.9964 17.5815 18.7416 17.8801 18.443L17.0316 17.5945ZM15.931 19.3798C16.3507 19.3332 16.7018 19.3021 17.0198 19.1492L16.5 18.0676C16.4087 18.1115 16.2995 18.1315 15.7985 18.1872L15.931 19.3798ZM20.6128 11.0906C21.0692 11.547 21.368 11.8476 21.56 12.0993C21.7415 12.3372 21.7704 12.4598 21.7704 12.552H22.9704C22.9704 12.0919 22.777 11.7161 22.5141 11.3714C22.2617 11.0406 21.8938 10.6745 21.4613 10.2421L20.6128 11.0906ZM21.4613 14.8618C21.8938 14.4294 22.2617 14.0633 22.5141 13.7325C22.777 13.3879 22.9704 13.012 22.9704 12.552H21.7704C21.7704 12.6442 21.7415 12.7667 21.56 13.0046C21.368 13.2563 21.0692 13.5569 20.6128 14.0133L21.4613 14.8618ZM21.4613 10.2421C21.0289 9.80963 20.6627 9.44171 20.332 9.18933C19.9873 8.92638 19.6115 8.73301 19.1514 8.73301V9.93301C19.2436 9.93301 19.3662 9.96185 19.6041 10.1434C19.8558 10.3354 20.1563 10.6342 20.6128 11.0906L21.4613 10.2421ZM17.6901 11.0906C18.1465 10.6342 18.4471 10.3354 18.6988 10.1434C18.9367 9.96185 19.0592 9.93301 19.1514 9.93301V8.73301C18.6914 8.73301 18.3155 8.92638 17.9709 9.18933C17.6401 9.44171 17.274 9.80963 16.8415 10.2421L17.6901 11.0906ZM21.4613 14.0133L17.6901 10.2421L16.8415 11.0906L20.6128 14.8618L21.4613 14.0133Z" fill="#F1FCF3"/>
</g>
</g>
<defs>
<filter id="filter0_d_1654_30533" x="0" y="0" width="34" height="34" filterUnits="userSpaceOnUse" color-interpolation-filters="sRGB">
<feFlood flood-opacity="0" result="BackgroundImageFix"/>
<feColorMatrix in="SourceAlpha" type="matrix" values="0 0 0 0 0 0 0 0 0 0 0 0 0 0 0 0 0 0 127 0" result="hardAlpha"/>
<feOffset dx="2" dy="2"/>
<feComposite in2="hardAlpha" operator="out"/>
<feColorMatrix type="matrix" values="0 0 0 0 0.14126 0 0 0 0 0.132622 0 0 0 0 0.132622 0 0 0 1 0"/>
<feBlend mode="normal" in2="BackgroundImageFix" result="effect1_dropShadow_1654_30533"/>
<feBlend mode="normal" in="SourceGraphic" in2="effect1_dropShadow_1654_30533" result="shape"/>
</filter>
<clipPath id="clip0_1654_30533">
<rect width="32" height="32" rx="4" fill="white"/>
</clipPath>
</defs>
</svg>
