<svg width="69" height="27" viewBox="0 0 69 27" fill="none" xmlns="http://www.w3.org/2000/svg">
<path d="M3.08663 6.81V9.26H6.37663V10.814H3.08663V13.404H6.79663V15H1.12663V5.214H6.79663V6.81H3.08663ZM8.3538 11.094C8.3538 10.31 8.5078 9.61467 8.8158 9.008C9.13313 8.40133 9.56246 7.93467 10.1038 7.608C10.6451 7.28133 11.2471 7.118 11.9098 7.118C12.4138 7.118 12.8945 7.23 13.3518 7.454C13.8091 7.66867 14.1731 7.958 14.4438 8.322V4.64H16.4318V15H14.4438V13.852C14.2011 14.2347 13.8605 14.5427 13.4218 14.776C12.9831 15.0093 12.4745 15.126 11.8958 15.126C11.2425 15.126 10.6451 14.958 10.1038 14.622C9.56246 14.286 9.13313 13.8147 8.8158 13.208C8.5078 12.592 8.3538 11.8873 8.3538 11.094ZM14.4578 11.122C14.4578 10.646 14.3645 10.24 14.1778 9.904C13.9911 9.55867 13.7391 9.29733 13.4218 9.12C13.1045 8.93333 12.7638 8.84 12.3998 8.84C12.0358 8.84 11.6998 8.92867 11.3918 9.106C11.0838 9.28333 10.8318 9.54467 10.6358 9.89C10.4491 10.226 10.3558 10.6273 10.3558 11.094C10.3558 11.5607 10.4491 11.9713 10.6358 12.326C10.8318 12.6713 11.0838 12.9373 11.3918 13.124C11.7091 13.3107 12.0451 13.404 12.3998 13.404C12.7638 13.404 13.1045 13.3153 13.4218 13.138C13.7391 12.9513 13.9911 12.69 14.1778 12.354C14.3645 12.0087 14.4578 11.598 14.4578 11.122ZM25.9481 7.244V15H23.9741V14.02C23.7221 14.356 23.3907 14.622 22.9801 14.818C22.5787 15.0047 22.1401 15.098 21.6641 15.098C21.0574 15.098 20.5207 14.972 20.0541 14.72C19.5874 14.4587 19.2187 14.0807 18.9481 13.586C18.6867 13.082 18.5561 12.4847 18.5561 11.794V7.244H20.5161V11.514C20.5161 12.13 20.6701 12.606 20.9781 12.942C21.2861 13.2687 21.7061 13.432 22.2381 13.432C22.7794 13.432 23.2041 13.2687 23.5121 12.942C23.8201 12.606 23.9741 12.13 23.9741 11.514V7.244H25.9481Z" fill="#23963E"/>
<path d="M36.9399 5.228L33.3559 15H30.9759L27.3919 5.228H29.4919L32.1799 12.998L34.8539 5.228H36.9399ZM45.6051 10.954C45.6051 11.234 45.5864 11.486 45.5491 11.71H39.8791C39.9257 12.27 40.1217 12.7087 40.4671 13.026C40.8124 13.3433 41.2371 13.502 41.7411 13.502C42.4691 13.502 42.9871 13.1893 43.2951 12.564H45.4091C45.1851 13.3107 44.7557 13.9267 44.1211 14.412C43.4864 14.888 42.7071 15.126 41.7831 15.126C41.0364 15.126 40.3644 14.9627 39.7671 14.636C39.1791 14.3 38.7171 13.8287 38.3811 13.222C38.0544 12.6153 37.8911 11.9153 37.8911 11.122C37.8911 10.3193 38.0544 9.61467 38.3811 9.008C38.7077 8.40133 39.1651 7.93467 39.7531 7.608C40.3411 7.28133 41.0177 7.118 41.7831 7.118C42.5204 7.118 43.1784 7.27667 43.7571 7.594C44.3451 7.91133 44.7977 8.364 45.1151 8.952C45.4417 9.53067 45.6051 10.198 45.6051 10.954ZM43.5751 10.394C43.5657 9.89 43.3837 9.48867 43.0291 9.19C42.6744 8.882 42.2404 8.728 41.7271 8.728C41.2417 8.728 40.8311 8.87733 40.4951 9.176C40.1684 9.46533 39.9677 9.87133 39.8931 10.394H43.5751ZM49.2757 8.448C49.5277 8.03733 49.8544 7.71533 50.2557 7.482C50.6664 7.24867 51.133 7.132 51.6557 7.132V9.19H51.1377C50.5217 9.19 50.055 9.33467 49.7377 9.624C49.4297 9.91333 49.2757 10.4173 49.2757 11.136V15H47.3157V7.244H49.2757V8.448ZM56.2238 15.126C55.5892 15.126 55.0198 15.014 54.5158 14.79C54.0118 14.5567 53.6105 14.244 53.3118 13.852C53.0225 13.46 52.8638 13.026 52.8358 12.55H54.8098C54.8472 12.8487 54.9918 13.096 55.2438 13.292C55.5052 13.488 55.8272 13.586 56.2098 13.586C56.5832 13.586 56.8725 13.5113 57.0778 13.362C57.2925 13.2127 57.3998 13.0213 57.3998 12.788C57.3998 12.536 57.2692 12.3493 57.0078 12.228C56.7558 12.0973 56.3498 11.9573 55.7898 11.808C55.2112 11.668 54.7352 11.5233 54.3618 11.374C53.9978 11.2247 53.6805 10.996 53.4098 10.688C53.1485 10.38 53.0178 9.96467 53.0178 9.442C53.0178 9.01267 53.1392 8.62067 53.3818 8.266C53.6338 7.91133 53.9885 7.63133 54.4458 7.426C54.9125 7.22067 55.4585 7.118 56.0838 7.118C57.0078 7.118 57.7452 7.35133 58.2958 7.818C58.8465 8.27533 59.1498 8.896 59.2058 9.68H57.3298C57.3018 9.372 57.1712 9.12933 56.9378 8.952C56.7138 8.76533 56.4105 8.672 56.0278 8.672C55.6732 8.672 55.3978 8.73733 55.2018 8.868C55.0152 8.99867 54.9218 9.18067 54.9218 9.414C54.9218 9.67533 55.0525 9.876 55.3138 10.016C55.5752 10.1467 55.9812 10.282 56.5318 10.422C57.0918 10.562 57.5538 10.7067 57.9178 10.856C58.2818 11.0053 58.5945 11.2387 58.8558 11.556C59.1265 11.864 59.2665 12.2747 59.2758 12.788C59.2758 13.236 59.1498 13.6373 58.8978 13.992C58.6552 14.3467 58.3005 14.6267 57.8338 14.832C57.3765 15.028 56.8398 15.126 56.2238 15.126ZM68.3748 10.954C68.3748 11.234 68.3561 11.486 68.3188 11.71H62.6487C62.6954 12.27 62.8914 12.7087 63.2367 13.026C63.5821 13.3433 64.0067 13.502 64.5107 13.502C65.2387 13.502 65.7567 13.1893 66.0647 12.564H68.1788C67.9547 13.3107 67.5254 13.9267 66.8907 14.412C66.2561 14.888 65.4767 15.126 64.5527 15.126C63.8061 15.126 63.1341 14.9627 62.5367 14.636C61.9487 14.3 61.4867 13.8287 61.1507 13.222C60.8241 12.6153 60.6607 11.9153 60.6607 11.122C60.6607 10.3193 60.8241 9.61467 61.1507 9.008C61.4774 8.40133 61.9347 7.93467 62.5227 7.608C63.1107 7.28133 63.7874 7.118 64.5527 7.118C65.2901 7.118 65.9481 7.27667 66.5267 7.594C67.1148 7.91133 67.5674 8.364 67.8847 8.952C68.2114 9.53067 68.3748 10.198 68.3748 10.954ZM66.3447 10.394C66.3354 9.89 66.1534 9.48867 65.7987 9.19C65.4441 8.882 65.0101 8.728 64.4967 8.728C64.0114 8.728 63.6007 8.87733 63.2647 9.176C62.9381 9.46533 62.7374 9.87133 62.6627 10.394H66.3447Z" fill="#092A13"/>
<g clip-path="url(#clip0_17_37)">
<path fill-rule="evenodd" clip-rule="evenodd" d="M27.2089 20.792H21.9098C21.8934 20.792 21.8801 20.8057 21.8801 20.8226V22.3645C21.8801 22.3814 21.8934 22.3951 21.9098 22.3951H27.6852C27.7674 22.3951 27.8341 22.4634 27.8341 22.5477V22.9425C27.8341 22.983 27.8184 23.0218 27.7905 23.0504L24.2925 26.6381C24.2344 26.6977 24.1401 26.6977 24.082 26.6381L23.8459 26.396C23.7878 26.3364 23.7878 26.2397 23.8459 26.1801L26.8902 23.0578C26.9089 23.0386 26.8956 23.0057 26.8691 23.0057H21.3591C21.2769 23.0057 21.2102 22.9374 21.2102 22.853V20.2577C21.2102 20.1734 21.2769 20.105 21.3591 20.105H27.7596C27.8419 20.105 27.9085 20.1734 27.9085 20.2577V21.7529C27.9085 21.8372 27.8419 21.9056 27.7596 21.9056H22.6987C22.6165 21.9056 22.5499 21.8372 22.5499 21.7529V21.3713C22.5499 21.2869 22.6165 21.2186 22.6987 21.2186H27.2089C27.2253 21.2186 27.2387 21.2049 27.2387 21.1881V20.8226C27.2387 20.8057 27.2253 20.792 27.2089 20.792ZM22.4016 24.9052L22.0745 24.5697C22.0458 24.5402 22.0454 24.4926 22.0736 24.4627L22.9599 23.5218C22.9739 23.5069 22.9933 23.4985 23.0134 23.4985H23.6499C23.7155 23.4985 23.7491 23.5792 23.7036 23.6277L22.5079 24.9041C22.479 24.9349 22.431 24.9354 22.4016 24.9052ZM22.9263 25.4507L23.2534 25.7862C23.2828 25.8163 23.3304 25.816 23.3593 25.7855L25.4114 23.6281C25.4574 23.5798 25.424 23.4985 25.3581 23.4985H24.7231C24.7032 23.4985 24.684 23.5067 24.67 23.5214L22.9259 25.3433C22.8972 25.3732 22.8975 25.4211 22.9263 25.4507Z" fill="#23963E"/>
<path d="M30.9463 25.3866C30.6873 25.3866 30.4532 25.3411 30.2439 25.2502C30.0381 25.1592 29.8749 25.0282 29.7543 24.8572C29.6337 24.6862 29.5716 24.4842 29.568 24.2514H30.3662C30.3769 24.4078 30.4301 24.5315 30.5259 24.6225C30.6252 24.7135 30.76 24.7589 30.9303 24.7589C31.1041 24.7589 31.2407 24.7171 31.3401 24.6334C31.4394 24.5461 31.4891 24.4333 31.4891 24.295C31.4891 24.1822 31.4554 24.0894 31.388 24.0167C31.3205 23.9439 31.2354 23.8875 31.1325 23.8475C31.0332 23.8038 30.8948 23.7565 30.7175 23.7056C30.4762 23.6328 30.2793 23.5618 30.1268 23.4927C29.9778 23.4199 29.8483 23.3126 29.7383 23.1707C29.6319 23.0252 29.5787 22.8323 29.5787 22.5921C29.5787 22.3666 29.6337 22.1701 29.7436 22.0027C29.8536 21.8353 30.0079 21.708 30.2066 21.6206C30.4053 21.5297 30.6323 21.4842 30.8878 21.4842C31.2709 21.4842 31.5813 21.5806 31.819 21.7735C32.0602 21.9627 32.1933 22.2283 32.2181 22.5703H31.3986C31.3915 22.4393 31.3365 22.332 31.2336 22.2483C31.1343 22.161 31.0013 22.1173 30.8345 22.1173C30.6891 22.1173 30.572 22.1555 30.4833 22.2319C30.3982 22.3084 30.3556 22.4193 30.3556 22.5649C30.3556 22.6668 30.3875 22.7523 30.4514 22.8214C30.5188 22.8869 30.6004 22.9415 30.6962 22.9851C30.7955 23.0252 30.9339 23.0725 31.1112 23.127C31.3525 23.1998 31.5494 23.2726 31.7019 23.3453C31.8545 23.4181 31.9858 23.5273 32.0957 23.6728C32.2057 23.8184 32.2607 24.0094 32.2607 24.2459C32.2607 24.4497 32.2092 24.6389 32.1064 24.8135C32.0035 24.9882 31.8527 25.1283 31.654 25.2338C31.4554 25.3357 31.2194 25.3866 30.9463 25.3866Z" fill="#092A13"/>
<path d="M33.907 22.9524V24.4151C33.907 24.517 33.9301 24.5916 33.9762 24.6389C34.0259 24.6825 34.1075 24.7044 34.221 24.7044H34.5669V25.3484H34.0986C33.4706 25.3484 33.1567 25.0355 33.1567 24.4096V22.9524H32.8055V22.3247H33.1567V21.577H33.907V22.3247H34.5669V22.9524H33.907Z" fill="#092A13"/>
<path d="M35.9808 22.7941C36.0766 22.634 36.2007 22.5085 36.3533 22.4175C36.5094 22.3265 36.6868 22.2811 36.8854 22.2811V23.0834H36.6885C36.4544 23.0834 36.277 23.1398 36.1564 23.2526C36.0393 23.3654 35.9808 23.5618 35.9808 23.842V25.3484H35.2358V22.3247H35.9808V22.7941Z" fill="#092A13"/>
<path d="M40.2608 23.7711C40.2608 23.8802 40.2537 23.9785 40.2395 24.0658H38.0843C38.1021 24.2841 38.1766 24.4551 38.3078 24.5788C38.4391 24.7026 38.6005 24.7644 38.7921 24.7644C39.0688 24.7644 39.2657 24.6425 39.3828 24.3987H40.1863C40.1012 24.6898 39.938 24.93 39.6967 25.1192C39.4555 25.3047 39.1593 25.3975 38.8081 25.3975C38.5242 25.3975 38.2688 25.3338 38.0418 25.2065C37.8183 25.0755 37.6426 24.8918 37.5149 24.6552C37.3908 24.4187 37.3287 24.1459 37.3287 23.8366C37.3287 23.5236 37.3908 23.2489 37.5149 23.0124C37.6391 22.7759 37.8129 22.594 38.0364 22.4666C38.2599 22.3393 38.5171 22.2756 38.8081 22.2756C39.0883 22.2756 39.3384 22.3375 39.5584 22.4612C39.7819 22.5849 39.9539 22.7613 40.0746 22.9906C40.1987 23.2162 40.2608 23.4763 40.2608 23.7711ZM39.4892 23.5527C39.4856 23.3563 39.4165 23.1998 39.2817 23.0834C39.1469 22.9633 38.9819 22.9033 38.7868 22.9033C38.6023 22.9033 38.4462 22.9615 38.3185 23.0779C38.1943 23.1907 38.118 23.349 38.0897 23.5527H39.4892Z" fill="#092A13"/>
<path d="M40.7461 23.8256C40.7461 23.52 40.8046 23.2489 40.9217 23.0124C41.0423 22.7759 41.2037 22.594 41.4059 22.4666C41.6117 22.3393 41.8405 22.2756 42.0923 22.2756C42.3122 22.2756 42.5039 22.3211 42.667 22.412C42.8339 22.503 42.9669 22.6176 43.0662 22.7559V22.3247H43.8165V25.3484H43.0662V24.9063C42.9704 25.0482 42.8375 25.1665 42.667 25.2611C42.5003 25.352 42.307 25.3975 42.0871 25.3975C41.8387 25.3975 41.6117 25.332 41.4059 25.201C41.2037 25.0701 41.0423 24.8863 40.9217 24.6498C40.8046 24.4096 40.7461 24.1349 40.7461 23.8256ZM43.0662 23.8366C43.0662 23.651 43.0308 23.4927 42.9597 23.3617C42.8889 23.2271 42.793 23.1252 42.6725 23.0561C42.5519 22.9833 42.4223 22.9469 42.2839 22.9469C42.1456 22.9469 42.0179 22.9815 41.9008 23.0506C41.7838 23.1198 41.688 23.2216 41.6135 23.3563C41.5425 23.4872 41.507 23.6437 41.507 23.8256C41.507 24.0076 41.5425 24.1677 41.6135 24.3059C41.688 24.4406 41.7838 24.5443 41.9008 24.617C42.0214 24.6898 42.1491 24.7262 42.2839 24.7262C42.4223 24.7262 42.5519 24.6916 42.6725 24.6225C42.793 24.5497 42.8889 24.4478 42.9597 24.3169C43.0308 24.1822 43.0662 24.0221 43.0662 23.8366Z" fill="#092A13"/>
<path d="M48.3384 22.2811C48.7003 22.2811 48.9911 22.3957 49.211 22.6249C49.4346 22.8505 49.5463 23.167 49.5463 23.5746V25.3484H48.8013V23.6783C48.8013 23.4418 48.7428 23.2617 48.6258 23.1379C48.5086 23.0106 48.3491 22.9469 48.1467 22.9469C47.9446 22.9469 47.7831 23.0106 47.6626 23.1379C47.5456 23.2617 47.4869 23.4418 47.4869 23.6783V25.3484H46.7419V23.6783C46.7419 23.4418 46.6834 23.2617 46.5664 23.1379C46.4492 23.0106 46.2896 22.9469 46.0875 22.9469C45.8816 22.9469 45.7184 23.0106 45.5979 23.1379C45.4807 23.2617 45.4222 23.4418 45.4222 23.6783V25.3484H44.6772V22.3247H45.4222V22.6904C45.518 22.563 45.6404 22.463 45.7893 22.3902C45.942 22.3174 46.1087 22.2811 46.2896 22.2811C46.5203 22.2811 46.7259 22.332 46.9069 22.4339C47.0878 22.5321 47.2279 22.674 47.3273 22.8596C47.4231 22.6849 47.5615 22.5449 47.7425 22.4393C47.9268 22.3338 48.1255 22.2811 48.3384 22.2811Z" fill="#092A13"/>
<path d="M53.5633 25.3484H52.8183L51.1313 22.7341V25.3484H50.3863V21.5333H51.1313L52.8183 24.1531V21.5333H53.5633V25.3484Z" fill="#23963E"/>
<path d="M56.7261 21.5388V22.1555H55.1776V23.1325H56.3642V23.7383H55.1776V25.3484H54.4326V21.5388H56.7261Z" fill="#23963E"/>
<path d="M59.9151 21.5388V22.1555H58.9254V25.3484H58.1804V22.1555H57.1905V21.5388H59.9151Z" fill="#23963E"/>
</g>
<path d="M10.1112 25V20.6364H11.7093C12.0189 20.6364 12.2753 20.6875 12.4784 20.7898C12.6816 20.8906 12.8335 21.0277 12.9344 21.201C13.0352 21.3729 13.0857 21.5668 13.0857 21.7827C13.0857 21.9645 13.0523 22.1179 12.9855 22.2429C12.9188 22.3665 12.8293 22.4659 12.7171 22.5412C12.6063 22.6151 12.4841 22.669 12.3506 22.7031V22.7457C12.4955 22.7528 12.6368 22.7997 12.7746 22.8864C12.9138 22.9716 13.0289 23.093 13.1198 23.2507C13.2107 23.4084 13.2561 23.6001 13.2561 23.826C13.2561 24.049 13.2036 24.2493 13.0985 24.4268C12.9948 24.603 12.8343 24.7429 12.6169 24.8466C12.3996 24.9489 12.1219 25 11.7838 25H10.1112ZM10.7696 24.4354H11.7199C12.0352 24.4354 12.2611 24.3743 12.3975 24.2521C12.5338 24.13 12.602 23.9773 12.602 23.794C12.602 23.6562 12.5672 23.5298 12.4976 23.4148C12.428 23.2997 12.3286 23.2081 12.1993 23.1399C12.0715 23.0717 11.9195 23.0376 11.7433 23.0376H10.7696V24.4354ZM10.7696 22.5241H11.6517C11.7994 22.5241 11.9323 22.4957 12.0502 22.4389C12.1695 22.3821 12.2639 22.3026 12.3335 22.2003C12.4046 22.0966 12.4401 21.9744 12.4401 21.8338C12.4401 21.6534 12.3769 21.5021 12.2504 21.38C12.124 21.2578 11.9301 21.1967 11.6688 21.1967H10.7696V22.5241ZM14.3886 26.2273C14.2934 26.2273 14.2068 26.2195 14.1286 26.2038C14.0505 26.1896 13.9923 26.174 13.9539 26.157L14.1073 25.6349C14.2238 25.6662 14.3275 25.6797 14.4184 25.6754C14.5093 25.6712 14.5896 25.6371 14.6592 25.5732C14.7302 25.5092 14.7927 25.4048 14.8467 25.2599L14.9255 25.0426L13.7281 21.7273H14.4099L15.2387 24.267H15.2728L16.1017 21.7273H16.7856L15.4369 25.4368C15.3744 25.6072 15.2948 25.7514 15.1982 25.8693C15.1017 25.9886 14.9866 26.0781 14.8531 26.1378C14.7195 26.1974 14.5647 26.2273 14.3886 26.2273Z" fill="#073412"/>
<defs>
<clipPath id="clip0_17_37">
<rect width="39" height="7" fill="white" transform="translate(21 20)"/>
</clipPath>
</defs>
</svg>
