  <svg xmlns="http://www.w3.org/2000/svg" width="20" height="16" viewBox="0 0 20 16" fill="none">
            <path d="M1.66666 5.03702C1.66666 2.99152 3.32487 1.33331 5.37037 1.33331H14.6296C16.6751 1.33331 18.3333 2.99152 18.3333 5.03702C18.3333 5.48976 18.0737 5.90238 17.6655 6.0983L17.2594 6.29325C15.8275 6.98056 15.8275 9.01939 17.2594 9.70671L17.6655 9.90166C18.0737 10.0976 18.3333 10.5102 18.3333 10.9629C18.3333 13.0084 16.6751 14.6666 14.6296 14.6666H5.37037C3.32487 14.6666 1.66666 13.0084 1.66666 10.9629C1.66666 10.5102 1.9263 10.0976 2.33446 9.90166L2.7406 9.70671C4.17251 9.01939 4.17251 6.98056 2.7406 6.29325L2.33446 6.0983C1.9263 5.90238 1.66666 5.48976 1.66666 5.03702Z" stroke="#F1FCF3" stroke-width="1.4"/>
            <path d="M9.18126 6.11445C9.43896 5.29516 10.561 5.29516 10.8187 6.11445C10.934 6.48085 11.2645 6.72893 11.6375 6.72893C12.4714 6.72893 12.8182 7.83128 12.1435 8.33764C11.8418 8.56408 11.7155 8.96547 11.8308 9.33187C12.0885 10.1512 11.1807 10.8325 10.506 10.3261C10.2043 10.0997 9.79571 10.0997 9.49399 10.3261C8.81931 10.8325 7.91154 10.1512 8.16924 9.33187C8.28449 8.96547 8.15824 8.56408 7.85651 8.33764C7.18183 7.83128 7.52857 6.72893 8.36252 6.72893C8.73547 6.72893 9.06601 6.48085 9.18126 6.11445Z" stroke="#F1FCF3" stroke-width="1.4"/>
          </svg>