<svg xmlns="http://www.w3.org/2000/svg" width="20" height="16" viewBox="0 0 20 16" fill="none">
  <path d="M3.10854 14.2126L3.42633 13.5889L3.10854 14.2126ZM1.28764 12.3917L1.91134 12.0739L1.28764 12.3917ZM18.7127 12.3917L18.089 12.0739L18.7127 12.3917ZM16.8918 14.2126L16.574 13.5889L16.8918 14.2126ZM16.8918 1.78751L16.574 2.41122L16.8918 1.78751ZM18.7127 3.60841L18.089 3.92621L18.7127 3.60841ZM3.10854 1.78751L3.42633 2.41122L3.10854 1.78751ZM1.28764 3.60841L1.91134 3.92621L1.28764 3.60841ZM6.66683 9.80004C6.28023 9.80004 5.96683 10.1134 5.96683 10.5C5.96683 10.8866 6.28023 11.2 6.66683 11.2V9.80004ZM13.3335 11.2C13.7201 11.2 14.0335 10.8866 14.0335 10.5C14.0335 10.1134 13.7201 9.80004 13.3335 9.80004V11.2ZM13.3335 4.80004C12.9469 4.80004 12.6335 5.11344 12.6335 5.50004C12.6335 5.88664 12.9469 6.20004 13.3335 6.20004V4.80004ZM16.6668 6.20004C17.0534 6.20004 17.3668 5.88664 17.3668 5.50004C17.3668 5.11344 17.0534 4.80004 16.6668 4.80004V6.20004ZM7.50016 2.03337H12.5002V0.633374H7.50016V2.03337ZM12.5002 13.9667H7.50016V15.3667H12.5002V13.9667ZM7.50016 13.9667C6.32184 13.9667 5.48019 13.9662 4.82051 13.9123C4.169 13.859 3.75685 13.7573 3.42633 13.5889L2.79074 14.8363C3.35152 15.122 3.96841 15.2473 4.7065 15.3076C5.43642 15.3673 6.34494 15.3667 7.50016 15.3667V13.9667ZM0.133496 8.00004C0.133496 9.15527 0.132952 10.0638 0.192588 10.7937C0.252893 11.5318 0.378201 12.1487 0.663931 12.7095L1.91134 12.0739C1.74293 11.7434 1.64117 11.3312 1.58794 10.6797C1.53404 10.02 1.5335 9.17837 1.5335 8.00004H0.133496ZM3.42633 13.5889C2.77403 13.2565 2.2437 12.7262 1.91134 12.0739L0.663931 12.7095C1.13051 13.6252 1.87502 14.3697 2.79074 14.8363L3.42633 13.5889ZM18.4668 8.00004C18.4668 9.17837 18.4663 10.02 18.4124 10.6797C18.3592 11.3312 18.2574 11.7434 18.089 12.0739L19.3364 12.7095C19.6221 12.1487 19.7474 11.5318 19.8077 10.7937C19.8674 10.0638 19.8668 9.15527 19.8668 8.00004H18.4668ZM12.5002 15.3667C13.6554 15.3667 14.5639 15.3673 15.2938 15.3076C16.0319 15.2473 16.6488 15.122 17.2096 14.8363L16.574 13.5889C16.2435 13.7573 15.8313 13.859 15.1798 13.9123C14.5201 13.9662 13.6785 13.9667 12.5002 13.9667V15.3667ZM18.089 12.0739C17.7566 12.7262 17.2263 13.2565 16.574 13.5889L17.2096 14.8363C18.1253 14.3697 18.8698 13.6252 19.3364 12.7095L18.089 12.0739ZM12.5002 2.03337C13.6785 2.03337 14.5201 2.03392 15.1798 2.08782C15.8313 2.14105 16.2435 2.24281 16.574 2.41122L17.2096 1.16381C16.6488 0.878079 16.0319 0.75277 15.2938 0.692466C14.5639 0.63283 13.6554 0.633374 12.5002 0.633374V2.03337ZM19.8668 8.00004C19.8668 6.84482 19.8674 5.9363 19.8077 5.20638C19.7474 4.46829 19.6221 3.8514 19.3364 3.29062L18.089 3.92621C18.2574 4.25673 18.3592 4.66887 18.4124 5.32038C18.4663 5.98007 18.4668 6.82171 18.4668 8.00004H19.8668ZM16.574 2.41122C17.2263 2.74358 17.7566 3.27391 18.089 3.92621L19.3364 3.29062C18.8698 2.3749 18.1253 1.63039 17.2096 1.16381L16.574 2.41122ZM7.50016 0.633374C6.34494 0.633374 5.43642 0.63283 4.7065 0.692466C3.96841 0.75277 3.35152 0.878079 2.79074 1.16381L3.42633 2.41122C3.75685 2.24281 4.16899 2.14105 4.82051 2.08782C5.48019 2.03392 6.32184 2.03337 7.50016 2.03337V0.633374ZM1.5335 8.00004C1.5335 6.82171 1.53404 5.98007 1.58794 5.32038C1.64117 4.66887 1.74293 4.25673 1.91134 3.92621L0.663931 3.29062C0.378201 3.8514 0.252893 4.46829 0.192588 5.20638C0.132952 5.9363 0.133496 6.84482 0.133496 8.00004H1.5335ZM2.79074 1.16381C1.87502 1.63039 1.13051 2.3749 0.663931 3.29062L1.91134 3.92621C2.2437 3.27391 2.77403 2.74358 3.42633 2.41122L2.79074 1.16381ZM6.66683 11.2H13.3335V9.80004H6.66683V11.2ZM13.3335 6.20004H16.6668V4.80004L13.3335 4.80004V6.20004Z" fill="#F1FCF3"/>
  <path d="M5.00016 10.5001C5.00016 10.9603 4.62707 11.3334 4.16683 11.3334C3.70659 11.3334 3.3335 10.9603 3.3335 10.5001C3.3335 10.0398 3.70659 9.66675 4.16683 9.66675C4.62707 9.66675 5.00016 10.0398 5.00016 10.5001Z" fill="#C0F2CB"/>
  <path d="M16.6668 10.5001C16.6668 10.9603 16.2937 11.3334 15.8335 11.3334C15.3733 11.3334 15.0002 10.9603 15.0002 10.5001C15.0002 10.0398 15.3733 9.66675 15.8335 9.66675C16.2937 9.66675 16.6668 10.0398 16.6668 10.5001Z" fill="#C0F2CB"/>
  <path d="M8.3335 5.50008C8.3335 5.96032 7.9604 6.33341 7.50016 6.33341C7.03993 6.33341 6.66683 5.96032 6.66683 5.50008C6.66683 5.03984 7.03993 4.66675 7.50016 4.66675C7.9604 4.66675 8.3335 5.03984 8.3335 5.50008Z" fill="#C0F2CB"/>
  <path d="M11.6668 5.50008C11.6668 5.96032 11.2937 6.33341 10.8335 6.33341C10.3733 6.33341 10.0002 5.96032 10.0002 5.50008C10.0002 5.03984 10.3733 4.66675 10.8335 4.66675C11.2937 4.66675 11.6668 5.03984 11.6668 5.50008Z" fill="#C0F2CB"/>
  <path d="M5.00016 5.50008C5.00016 5.96032 4.62707 6.33341 4.16683 6.33341C3.70659 6.33341 3.3335 5.96032 3.3335 5.50008C3.3335 5.03984 3.70659 4.66675 4.16683 4.66675C4.62707 4.66675 5.00016 5.03984 5.00016 5.50008Z" fill="#C0F2CB"/>
</svg>