<svg width="34" height="34" viewBox="0 0 34 34" fill="none" xmlns="http://www.w3.org/2000/svg">
<g filter="url(#filter0_d_1541_21144)">
<g clip-path="url(#clip0_1541_21144)">
<rect width="32" height="32" rx="4" fill="#30B750"/>
<line opacity="0.1" x1="54.2928" y1="9.09082" x2="9.29284" y2="55.0908" stroke="white" stroke-width="26"/>
<g opacity="0.2">
<path d="M3.41037 -1.33295C3.94039 -1.9626 4.94404 -1.36581 4.64396 -0.59943L3.71575 1.77119L5.66342 3.41069C6.29308 3.94072 5.69629 4.94437 4.9299 4.64429L2.55929 3.71608L0.919779 5.66375C0.389751 6.2934 -0.613898 5.69662 -0.31382 4.93023L0.614397 2.55962L-1.33328 0.920109C-1.96293 0.39008 -1.36614 -0.613569 -0.599759 -0.31349L1.77086 0.614726L3.41037 -1.33295Z" fill="#E9EDFD"/>
</g>
<g clip-path="url(#clip1_1541_21144)">
<path d="M13.5001 16.0003H18.5001M16.0001 18.5003V13.5003M24.3334 16.0003C24.3334 20.6027 20.6025 24.3337 16.0001 24.3337C11.3977 24.3337 7.66675 20.6027 7.66675 16.0003C7.66675 11.398 11.3977 7.66699 16.0001 7.66699C20.6025 7.66699 24.3334 11.398 24.3334 16.0003Z" stroke="#F1FCF3" stroke-width="1.4" stroke-linecap="round"/>
</g>
</g>
</g>
<defs>
<filter id="filter0_d_1541_21144" x="0" y="0" width="34" height="34" filterUnits="userSpaceOnUse" color-interpolation-filters="sRGB">
<feFlood flood-opacity="0" result="BackgroundImageFix"/>
<feColorMatrix in="SourceAlpha" type="matrix" values="0 0 0 0 0 0 0 0 0 0 0 0 0 0 0 0 0 0 127 0" result="hardAlpha"/>
<feOffset dx="2" dy="2"/>
<feComposite in2="hardAlpha" operator="out"/>
<feColorMatrix type="matrix" values="0 0 0 0 0.113725 0 0 0 0 0.368627 0 0 0 0 0.176471 0 0 0 1 0"/>
<feBlend mode="normal" in2="BackgroundImageFix" result="effect1_dropShadow_1541_21144"/>
<feBlend mode="normal" in="SourceGraphic" in2="effect1_dropShadow_1541_21144" result="shape"/>
</filter>
<clipPath id="clip0_1541_21144">
<rect width="32" height="32" rx="4" fill="white"/>
</clipPath>
<clipPath id="clip1_1541_21144">
<rect width="20" height="20" fill="white" transform="translate(6 6)"/>
</clipPath>
</defs>
</svg>
