<svg width="20" height="21" viewBox="0 0 20 21" fill="none" xmlns="http://www.w3.org/2000/svg">
<path d="M6.66667 15.3663C7.05327 15.3663 7.36667 15.0529 7.36667 14.6663C7.36667 14.2797 7.05327 13.9663 6.66667 13.9663V15.3663ZM13.3333 13.9663C12.9467 13.9663 12.6333 14.2797 12.6333 14.6663C12.6333 15.0529 12.9467 15.3663 13.3333 15.3663V13.9663ZM13.3333 5.63301C12.9467 5.63301 12.6333 5.94641 12.6333 6.33301C12.6333 6.71961 12.9467 7.03301 13.3333 7.03301V5.63301ZM6.66667 7.03301C7.05327 7.03301 7.36667 6.71961 7.36667 6.33301C7.36667 5.94641 7.05327 5.63301 6.66667 5.63301V7.03301ZM6.66667 9.79967C6.28007 9.79967 5.96667 10.1131 5.96667 10.4997C5.96667 10.8863 6.28007 11.1997 6.66667 11.1997V9.79967ZM13.3333 11.1997C13.7199 11.1997 14.0333 10.8863 14.0333 10.4997C14.0333 10.1131 13.7199 9.79967 13.3333 9.79967V11.1997ZM6.66667 13.9663C4.75208 13.9663 3.2 12.4143 3.2 10.4997H1.8C1.8 13.1875 3.97888 15.3663 6.66667 15.3663V13.9663ZM16.8 10.4997C16.8 12.4143 15.2479 13.9663 13.3333 13.9663V15.3663C16.0211 15.3663 18.2 13.1875 18.2 10.4997H16.8ZM13.3333 7.03301C15.2479 7.03301 16.8 8.58509 16.8 10.4997H18.2C18.2 7.81189 16.0211 5.63301 13.3333 5.63301V7.03301ZM6.66667 5.63301C3.97888 5.63301 1.8 7.81189 1.8 10.4997H3.2C3.2 8.58509 4.75208 7.03301 6.66667 7.03301V5.63301ZM6.66667 11.1997H13.3333V9.79967H6.66667V11.1997Z" fill="#fff"/>
</svg>
