<svg width="14" height="16" viewBox="0 0 14 16" fill="none" xmlns="http://www.w3.org/2000/svg">
<path fill-rule="evenodd" clip-rule="evenodd" d="M6.99993 1.11628C6.80708 1.11628 6.56995 1.21229 6.3619 1.49315L6.35875 1.4974L5.6005 2.50096C4.86446 3.48436 3.53154 3.55697 2.6855 2.66653L2.68354 2.66458C2.679 2.66004 2.67453 2.65541 2.67014 2.65072C2.28548 2.23882 1.98088 2.07022 1.79048 2.02722C1.66494 1.99887 1.59417 2.01992 1.5282 2.0904C1.33107 2.54674 1.23249 3.23427 1.23249 4.30884V11.6912C1.23249 12.7731 1.33244 13.4627 1.53228 13.919C1.59893 13.9838 1.67098 14.0017 1.79156 13.9741C1.98165 13.9305 2.28492 13.7618 2.67014 13.3493C2.67453 13.3446 2.679 13.34 2.68354 13.3354L2.68552 13.3334C3.53159 12.443 4.86454 12.5157 5.60057 13.4991C5.60086 13.4995 5.60115 13.4999 5.60144 13.5003L6.36192 14.5068C6.56997 14.7877 6.80708 14.8837 6.99993 14.8837C7.19279 14.8837 7.42992 14.7877 7.63796 14.5069L7.64072 14.5031L8.39154 13.507C8.39144 13.5071 8.39164 13.5068 8.39154 13.507C9.13538 12.5157 10.4823 12.44 11.33 13.3496C11.8081 13.8623 12.1456 13.9833 12.306 13.9833C12.3698 13.9833 12.4184 13.9681 12.4667 13.9211C12.6671 13.4648 12.7674 12.7748 12.7674 11.6912V4.30884C12.7674 3.23512 12.6689 2.54783 12.4721 2.09148C12.4157 2.03227 12.3637 2.01674 12.306 2.01674C12.1456 2.01674 11.8081 2.13772 11.33 2.6504C10.4823 3.55999 9.13582 3.48475 8.39196 2.49359C8.39182 2.4934 8.3921 2.49377 8.39196 2.49359L7.63795 1.49316C7.4299 1.2123 7.19278 1.11628 6.99993 1.11628ZM12.3953 1.80093C12.3953 1.8146 12.3958 1.82824 12.3968 1.84183C12.3939 1.81066 12.3953 1.79389 12.3953 1.80093ZM1.60458 1.80093C1.60458 1.79389 1.60593 1.81066 1.60308 1.84183C1.60408 1.82824 1.60458 1.8146 1.60458 1.80093ZM5.46659 0.826439C5.85381 0.304965 6.40481 0 6.99993 0C7.59515 0 8.14623 0.305065 8.53346 0.826695L9.28456 1.82326C9.61238 2.26034 10.1409 2.28913 10.5135 1.88927C11.0624 1.30055 11.6775 0.900464 12.306 0.900464C12.7235 0.900464 13.0806 1.08342 13.3383 1.38593C13.3788 1.4255 13.4186 1.47594 13.4506 1.53976C13.4631 1.56486 13.4731 1.58933 13.481 1.61264C13.7865 2.29697 13.8837 3.19 13.8837 4.30884V11.6912C13.8837 12.8157 13.7855 13.7121 13.4763 14.3978C13.4646 14.4304 13.4532 14.4531 13.4483 14.4629L13.4479 14.4638C13.432 14.4955 13.4065 14.5398 13.3677 14.5859C13.101 14.9184 12.7286 15.0995 12.306 15.0995C11.6775 15.0995 11.0625 14.6996 10.5136 14.1109C10.141 13.711 9.61238 13.7397 9.28456 14.1767L8.53496 15.1713C8.53446 15.172 8.53397 15.1726 8.53347 15.1733C8.14624 15.6949 7.59515 16 6.99993 16C6.4048 16 5.85379 15.695 5.46657 15.1735L4.70904 14.1709L4.70729 14.1685C4.38818 13.7416 3.86606 13.7084 3.49167 14.1056C3.48785 14.1097 3.48396 14.1137 3.48002 14.1176L3.47921 14.1184C3.02542 14.6026 2.53851 14.9482 2.04086 15.0622C1.49775 15.1866 0.988491 15.0205 0.63537 14.5897C0.594747 14.5422 0.568286 14.4963 0.552014 14.4638L0.551558 14.4629C0.54663 14.4531 0.535276 14.4304 0.523527 14.3978C0.214393 13.7121 0.116211 12.8157 0.116211 11.6912V4.30884C0.116211 3.18999 0.213404 2.29697 0.518863 1.61263C0.52676 1.58932 0.536722 1.56486 0.549297 1.53976C0.580988 1.4765 0.620338 1.4264 0.66053 1.38698C1.00891 0.975066 1.50713 0.818854 2.03636 0.938359C2.53556 1.05108 3.02485 1.39681 3.47921 1.88159L3.48002 1.8824C3.48396 1.88634 3.48785 1.89033 3.49167 1.89439C3.86606 2.29161 4.38818 2.25843 4.70729 1.83145L4.70903 1.82912L5.46659 0.826439Z" fill="#1F7634"/>
<path fill-rule="evenodd" clip-rule="evenodd" d="M3.83716 6.69779C3.83716 6.38954 4.08705 6.13965 4.3953 6.13965H10.3488C10.657 6.13965 10.9069 6.38954 10.9069 6.69779C10.9069 7.00604 10.657 7.25593 10.3488 7.25593H4.3953C4.08705 7.25593 3.83716 7.00604 3.83716 6.69779Z" fill="#1F7634"/>
<path fill-rule="evenodd" clip-rule="evenodd" d="M3.83716 9.30228C3.83716 8.99403 4.08705 8.74414 4.3953 8.74414H8.86041C9.16867 8.74414 9.41855 8.99403 9.41855 9.30228C9.41855 9.61053 9.16867 9.86042 8.86041 9.86042H4.3953C4.08705 9.86042 3.83716 9.61053 3.83716 9.30228Z" fill="#1F7634"/>
</svg>
