<svg width="18" height="16" viewBox="0 0 18 16" fill="none" xmlns="http://www.w3.org/2000/svg">
<path d="M13.1667 12.1663H9.83333M16.4908 6.33301C16.5 6.81386 16.5 7.3634 16.5 7.99967C16.5 10.3332 16.5 11.5 16.0459 12.3913C15.6464 13.1753 15.009 13.8127 14.225 14.2122C13.3337 14.6663 12.1669 14.6663 9.83333 14.6663H8.16667C5.83311 14.6663 4.66634 14.6663 3.77504 14.2122C2.99103 13.8127 2.35361 13.1753 1.95414 12.3913C1.5 11.5 1.5 10.3332 1.5 7.99967C1.5 7.3634 1.5 6.81386 1.50921 6.33301M16.4908 6.33301C16.4662 5.05032 16.3762 4.25632 16.0459 3.60805C15.6464 2.82404 15.009 2.18662 14.225 1.78715C13.3337 1.33301 12.1669 1.33301 9.83333 1.33301H8.16667C5.83311 1.33301 4.66634 1.33301 3.77504 1.78715C2.99103 2.18662 2.35361 2.82404 1.95414 3.60805C1.62383 4.25632 1.53376 5.05032 1.50921 6.33301M16.4908 6.33301H1.50921" stroke="#F1FCF3" stroke-width="1.4" stroke-linecap="round"/>
</svg>
