<svg xmlns="http://www.w3.org/2000/svg" width="18" height="19" viewBox="0 0 18 19" fill="none">
  <path d="M11.2743 1.66663C12.0797 1.66663 12.7326 2.31954 12.7326 3.12496C12.7326 3.93037 13.3855 4.58329 14.1909 4.58329H14.6821C15.6914 4.58329 16.5246 5.35541 16.486 6.36404C16.4185 8.12479 16.0759 10.9007 14.7411 13.3333C14.3889 13.9751 13.9106 14.6191 13.3794 15.2329C11.7295 17.1391 10.9045 18.0922 9.00024 18.0922C7.09599 18.0922 6.27103 17.1391 4.6211 15.2329C4.08991 14.6191 3.61159 13.9751 3.25941 13.3333C1.96456 10.9735 1.60332 8.46624 1.52125 6.84052C1.47049 5.83505 2.30235 5.0694 3.3091 5.0694H3.56649C4.50614 5.0694 5.26787 4.30767 5.26787 3.36801C5.26787 2.42836 6.02961 1.66663 6.96926 1.66663H11.2743Z" stroke="#F1FCF3" stroke-width="1.4"/>
</svg>