<svg width="17" height="16" viewBox="0 0 17 16" fill="none" xmlns="http://www.w3.org/2000/svg">
<path d="M9.7334 4.13298V6.66634C7.8734 6.69967 7.10006 7.47301 7.06673 9.33301H4.5334C2.5334 9.33301 1.7334 8.53304 1.7334 6.53304V4.13298C1.7334 2.13298 2.5334 1.33301 4.5334 1.33301H6.9334C8.9334 1.33301 9.7334 2.13298 9.7334 4.13298Z" stroke="#1F7634" stroke-linecap="round" stroke-linejoin="round"/>
<path d="M5.04003 3.91371C4.6867 3.67371 4.22003 3.67373 3.8667 3.92706" stroke="#1F7634" stroke-miterlimit="10" stroke-linecap="round" stroke-linejoin="round"/>
<path d="M7.70654 3.91371C7.3532 3.67371 6.88654 3.67373 6.5332 3.92706" stroke="#1F7634" stroke-miterlimit="10" stroke-linecap="round" stroke-linejoin="round"/>
<path d="M5.83977 7.61312H4.29311C4.09311 7.61312 3.93311 7.45309 3.93311 7.25309C3.93311 6.25976 4.73977 5.45312 5.73311 5.45312C6.15977 5.45312 6.55311 5.59977 6.85977 5.84644" stroke="#1F7634" stroke-miterlimit="10" stroke-linecap="round" stroke-linejoin="round"/>
<path d="M15.0664 9.46696V11.867C15.0664 13.867 14.2664 14.667 12.2664 14.667H9.86641C7.86641 14.667 7.06641 13.867 7.06641 11.867V9.33366C7.09974 7.47366 7.87307 6.70033 9.73307 6.66699H12.2664C14.2664 6.66699 15.0664 7.46696 15.0664 9.46696Z" stroke="#1F7634" stroke-linecap="round" stroke-linejoin="round"/>
<path d="M10.373 9.07975C10.0197 9.31975 9.55304 9.31974 9.19971 9.06641" stroke="#1F7634" stroke-miterlimit="10" stroke-linecap="round" stroke-linejoin="round"/>
<path d="M13.04 9.07975C12.6867 9.31975 12.22 9.31974 11.8667 9.06641" stroke="#1F7634" stroke-miterlimit="10" stroke-linecap="round" stroke-linejoin="round"/>
<path d="M9.6266 10.7871H12.5066C12.7066 10.7871 12.8666 10.9471 12.8666 11.1471C12.8666 12.1404 12.0599 12.9471 11.0666 12.9471C10.0733 12.9471 9.2666 12.1404 9.2666 11.1471C9.2666 10.9471 9.4266 10.7871 9.6266 10.7871Z" stroke="#1F7634" stroke-miterlimit="10" stroke-linecap="round" stroke-linejoin="round"/>
</svg>
