<svg width="18" height="16" viewBox="0 0 18 16" fill="none" xmlns="http://www.w3.org/2000/svg">
<path d="M0.142334 13.067C2.06457 13.1718 3.74549 12.7365 5.38481 11.5837C3.72885 11.3096 2.5805 10.576 1.9564 9.06051C2.43904 8.99602 2.86343 9.11694 3.36272 8.92347C1.73172 8.2302 0.674905 7.19028 0.633298 5.3926C1.14922 5.43291 1.54033 5.76342 2.15612 5.71506C0.658266 4.29626 0.200584 2.74848 1.1409 0.870189C2.70532 2.61144 4.53603 3.79646 6.77448 4.35269C6.89931 4.38493 7.0158 4.41718 7.14062 4.44136C7.71479 4.57035 8.39715 4.84443 8.74665 4.80412C9.34579 4.73157 8.74665 4.06248 8.89644 3.19186C9.37076 0.483245 12.4497 -0.75014 14.7297 0.837944C15.3954 1.3055 15.9197 1.29744 16.5771 1.01529C16.9182 0.870189 17.2678 0.725085 17.6755 0.555797C17.584 1.32969 16.9682 1.75694 16.4772 2.32929C17.0348 2.45021 17.4841 2.29705 18 2.13582C17.8253 2.69205 17.3926 3.00645 17.0015 3.31278C16.5937 3.62717 16.4356 3.95768 16.419 4.47361C16.1693 12.2851 7.00748 18.323 0.74148 13.5184C0.134019 13.0509 0.724831 13.5184 0.142334 13.067Z" fill="#00BB34"/>
</svg>
