<svg xmlns="http://www.w3.org/2000/svg" width="10" height="9" viewBox="0 0 10 9" fill="none">
  <path d="M0 7.63892C1.06107 7.69677 1.98892 7.45648 2.89382 6.82016C1.97974 6.66886 1.34586 6.26393 1.00135 5.42737C1.26777 5.39177 1.50203 5.45851 1.77763 5.35172C0.877335 4.96904 0.293976 4.39501 0.271009 3.4027C0.555797 3.42495 0.771687 3.60739 1.1116 3.58069C0.284792 2.79753 0.0321535 1.94316 0.551203 0.906354C1.41475 1.86751 2.4253 2.52164 3.66091 2.82867C3.72981 2.84647 3.79411 2.86427 3.86301 2.87762C4.17995 2.94882 4.55661 3.10011 4.74953 3.07786C5.08025 3.03782 4.74954 2.66848 4.83222 2.1879C5.09404 0.692763 6.79358 0.0119412 8.05216 0.888555C8.41963 1.14664 8.70901 1.14219 9.07188 0.986451C9.26021 0.906354 9.45313 0.826257 9.67821 0.732811C9.62768 1.15999 9.28777 1.39583 9.01676 1.71177C9.32452 1.77852 9.57256 1.69397 9.85734 1.60498C9.76088 1.91201 9.52203 2.08555 9.30614 2.25465C9.08107 2.42819 8.99379 2.61063 8.98461 2.89542C8.84681 7.20729 3.78952 10.5402 0.330725 7.88811C-0.00459 7.63002 0.321535 7.88811 0 7.63892Z" fill="#23963E"/>
</svg>