<svg width="34" height="34" viewBox="0 0 34 34" fill="none" xmlns="http://www.w3.org/2000/svg">
<g filter="url(#filter0_d_1542_22635)">
<g clip-path="url(#clip0_1542_22635)">
<rect width="32" height="32" rx="4" fill="#3D3D3D"/>
<line opacity="0.02" x1="54.2928" y1="9.09082" x2="9.29284" y2="55.0908" stroke="white" stroke-width="26"/>
<g opacity="0.1">
<path d="M3.41024 -1.33295C3.94027 -1.9626 4.94392 -1.36581 4.64384 -0.59943L3.71563 1.77119L5.6633 3.41069C6.29295 3.94072 5.69617 4.94437 4.92978 4.64429L2.55916 3.71608L0.919657 5.66375C0.389629 6.2934 -0.61402 5.69662 -0.313942 4.93023L0.614274 2.55962L-1.3334 0.920109C-1.96305 0.39008 -1.36627 -0.613569 -0.599881 -0.31349L1.77074 0.614726L3.41024 -1.33295Z" fill="#E9EDFD"/>
</g>
<g clip-path="url(#clip1_1542_22635)">
<path d="M10.7074 22.1535L11.0601 21.6681H11.0601L10.7074 22.1535ZM9.96998 21.4161L9.48457 21.7688H9.48457L9.96998 21.4161ZM20.6968 21.4161L20.2114 21.0634V21.0634L20.6968 21.4161ZM19.9593 22.1535L19.6067 21.6681L19.9593 22.1535ZM10.7074 11.4268L10.3548 10.9413L10.7074 11.4268ZM9.96998 12.1642L9.48457 11.8115H9.48457L9.96998 12.1642ZM16.6595 11.3949C16.9909 11.3989 17.2627 11.1335 17.2667 10.8021C17.2706 10.4708 17.0052 10.199 16.6739 10.195L16.6595 11.3949ZM21.9285 15.4496C21.9246 15.1183 21.6527 14.8529 21.3214 14.8569C20.99 14.8608 20.7246 15.1327 20.7286 15.464L21.9285 15.4496ZM14.5996 16.2654C14.3653 16.4997 14.3653 16.8796 14.5996 17.1139C14.8339 17.3482 15.2138 17.3482 15.4481 17.1139L14.5996 16.2654ZM18.321 8.07577C17.9897 8.07725 17.7222 8.34707 17.7237 8.67844C17.7252 9.00981 17.995 9.27724 18.3264 9.27576L18.321 8.07577ZM19.9785 8.66838L19.9811 9.26838L19.9785 8.66838ZM23.0451 11.735L22.4451 11.7324V11.7324L23.0451 11.735ZM22.4378 13.3871C22.4363 13.7185 22.7037 13.9883 23.0351 13.9898C23.3664 13.9913 23.6363 13.7239 23.6377 13.3925L22.4378 13.3871ZM22.4093 9.00884L22.7765 8.53434V8.53434L22.4093 9.00884ZM22.7047 9.30425L23.1792 8.93704V8.93704L22.7047 9.30425ZM22.5516 9.16196L22.1836 8.68807L22.1539 8.71112L22.1273 8.73769L22.5516 9.16196ZM15.3334 22.1901C14.0701 22.1901 13.1708 22.1893 12.4762 22.1141C11.7927 22.04 11.3789 21.8997 11.0601 21.6681L10.3548 22.6389C10.9122 23.0439 11.5614 23.222 12.3469 23.3071C13.1212 23.391 14.0968 23.3901 15.3334 23.3901V22.1901ZM8.73337 16.7901C8.73337 18.0267 8.73255 19.0023 8.81644 19.7766C8.90155 20.5621 9.07957 21.2113 9.48457 21.7688L10.4554 21.0634C10.2238 20.7446 10.0835 20.3308 10.0095 19.6473C9.9342 18.9527 9.93337 18.0534 9.93337 16.7901H8.73337ZM11.0601 21.6681C10.8281 21.4995 10.624 21.2955 10.4554 21.0634L9.48457 21.7688C9.72718 22.1027 10.0208 22.3963 10.3548 22.6389L11.0601 21.6681ZM20.7334 16.7901C20.7334 18.0534 20.7326 18.9527 20.6573 19.6473C20.5832 20.3308 20.443 20.7446 20.2114 21.0634L21.1822 21.7688C21.5872 21.2113 21.7652 20.5621 21.8503 19.7766C21.9342 19.0023 21.9334 18.0267 21.9334 16.7901H20.7334ZM15.3334 23.3901C16.5699 23.3901 17.5455 23.391 18.3198 23.3071C19.1054 23.222 19.7546 23.0439 20.312 22.6389L19.6067 21.6681C19.2879 21.8997 18.874 22.04 18.1906 22.1141C17.4959 22.1893 16.5966 22.1901 15.3334 22.1901V23.3901ZM20.2114 21.0634C20.0428 21.2955 19.8387 21.4995 19.6067 21.6681L20.312 22.6389C20.6459 22.3963 20.9396 22.1027 21.1822 21.7688L20.2114 21.0634ZM15.3334 10.1901C14.0968 10.1901 13.1212 10.1893 12.3469 10.2732C11.5614 10.3583 10.9122 10.5363 10.3548 10.9413L11.0601 11.9122C11.3789 11.6806 11.7927 11.5403 12.4762 11.4662C13.1708 11.391 14.0701 11.3901 15.3334 11.3901V10.1901ZM9.93337 16.7901C9.93337 15.5269 9.9342 14.6276 10.0095 13.9329C10.0835 13.2495 10.2238 12.8356 10.4554 12.5169L9.48457 11.8115C9.07957 12.369 8.90155 13.0182 8.81644 13.8037C8.73255 14.578 8.73337 15.5536 8.73337 16.7901H9.93337ZM10.3548 10.9413C10.0208 11.1839 9.72718 11.4776 9.48457 11.8115L10.4554 12.5169C10.624 12.2848 10.828 12.0808 11.0601 11.9122L10.3548 10.9413ZM15.3334 11.3901C15.8247 11.3901 16.2631 11.3902 16.6595 11.3949L16.6739 10.195C16.2688 10.1901 15.8227 10.1901 15.3334 10.1901V11.3901ZM21.9334 16.7901C21.9334 16.3008 21.9334 15.8547 21.9285 15.4496L20.7286 15.464C20.7334 15.8605 20.7334 16.2989 20.7334 16.7901H21.9334ZM18.3264 9.27576L19.9811 9.26838L19.9758 8.06839L18.321 8.07577L18.3264 9.27576ZM22.4451 11.7324L22.4378 13.3871L23.6377 13.3925L23.6451 11.7377L22.4451 11.7324ZM19.9811 9.26838C20.6551 9.26537 21.1098 9.26425 21.4543 9.30187C21.7868 9.33818 21.9398 9.40421 22.0421 9.48334L22.7765 8.53434C22.4274 8.26417 22.0248 8.15704 21.5846 8.10896C21.1565 8.06221 20.6215 8.06551 19.9758 8.06839L19.9811 9.26838ZM23.6451 11.7377C23.648 11.092 23.6513 10.557 23.6046 10.1289C23.5565 9.6887 23.4493 9.28613 23.1792 8.93704L22.2302 9.67147C22.3093 9.77371 22.3753 9.92672 22.4116 10.2592C22.4493 10.6037 22.4481 11.0584 22.4451 11.7324L23.6451 11.7377ZM15.4481 17.1139L22.9758 9.58622L22.1273 8.73769L14.5996 16.2654L15.4481 17.1139ZM22.0421 9.48334C22.0777 9.51094 22.1115 9.54076 22.1433 9.57262L22.9931 8.72544C22.9252 8.65724 22.8528 8.5934 22.7765 8.53434L22.0421 9.48334ZM22.1433 9.57262C22.1742 9.60368 22.2033 9.63669 22.2302 9.67147L23.1792 8.93704C23.1216 8.86262 23.0595 8.79196 22.9931 8.72544L22.1433 9.57262ZM22.9196 9.63584L22.9362 9.62291L22.2002 8.67515L22.1836 8.68807L22.9196 9.63584Z" fill="white"/>
</g>
</g>
</g>
<defs>
<filter id="filter0_d_1542_22635" x="0" y="0" width="34" height="34" filterUnits="userSpaceOnUse" color-interpolation-filters="sRGB">
<feFlood flood-opacity="0" result="BackgroundImageFix"/>
<feColorMatrix in="SourceAlpha" type="matrix" values="0 0 0 0 0 0 0 0 0 0 0 0 0 0 0 0 0 0 127 0" result="hardAlpha"/>
<feOffset dx="2" dy="2"/>
<feComposite in2="hardAlpha" operator="out"/>
<feColorMatrix type="matrix" values="0 0 0 0 0.14126 0 0 0 0 0.132622 0 0 0 0 0.132622 0 0 0 1 0"/>
<feBlend mode="normal" in2="BackgroundImageFix" result="effect1_dropShadow_1542_22635"/>
<feBlend mode="normal" in="SourceGraphic" in2="effect1_dropShadow_1542_22635" result="shape"/>
</filter>
<clipPath id="clip0_1542_22635">
<rect width="32" height="32" rx="4" fill="white"/>
</clipPath>
<clipPath id="clip1_1542_22635">
<rect width="16" height="16" fill="white" transform="translate(8 8)"/>
</clipPath>
</defs>
</svg>
