<svg width="20" height="20" viewBox="0 0 20 20" fill="none" xmlns="http://www.w3.org/2000/svg">
<path d="M1.23633 17.1635V15.311C1.23633 14.9007 1.3437 14.5236 1.55843 14.1796C1.77318 13.8356 2.07286 13.5674 2.45747 13.3751C3.14978 13.0247 3.92435 12.7352 4.78118 12.5065C5.63802 12.2779 6.53972 12.1636 7.48629 12.1636C8.43287 12.1636 9.33458 12.2779 10.1914 12.5065C11.0482 12.7352 11.8228 13.0247 12.5151 13.3751C12.8997 13.5674 13.1994 13.8356 13.4142 14.1796C13.6289 14.5236 13.7363 14.9007 13.7363 15.311V17.1635H1.23633ZM2.48629 15.9135H12.4863V15.311C12.4863 15.1208 12.4347 14.9579 12.3316 14.8222C12.2285 14.6865 12.0985 14.576 11.9414 14.4905C11.4307 14.2298 10.783 13.9851 9.99831 13.7565C9.21359 13.5279 8.37625 13.4135 7.48629 13.4135C6.59634 13.4135 5.75901 13.5279 4.97429 13.7565C4.18956 13.9851 3.54186 14.2298 3.03118 14.4905C2.87413 14.576 2.74405 14.6865 2.64095 14.8222C2.53784 14.9579 2.48629 15.1208 2.48629 15.311V15.9135ZM7.48629 10.8174C6.67113 10.8174 5.98124 10.5351 5.4166 9.97044C4.85197 9.40581 4.56966 8.69989 4.56966 7.85267H4.37735C4.26838 7.85267 4.1797 7.81848 4.11133 7.7501C4.04295 7.68173 4.00877 7.59305 4.00877 7.48408C4.00877 7.37511 4.04295 7.28644 4.11133 7.21806C4.1797 7.14969 4.26838 7.1155 4.37735 7.1155H4.56966C4.58034 6.592 4.70106 6.11899 4.93183 5.69646C5.16259 5.27392 5.49058 4.91147 5.91579 4.60912V5.40079C5.91579 5.50976 5.94997 5.59844 6.01835 5.66681C6.08672 5.73519 6.1754 5.76937 6.28437 5.76937C6.39334 5.76937 6.48202 5.73519 6.55039 5.66681C6.61877 5.59844 6.65295 5.50976 6.65295 5.40079V4.29181C6.77262 4.25014 6.90323 4.21622 7.04479 4.19004C7.18634 4.16387 7.33351 4.15079 7.48629 4.15079C7.63906 4.15079 7.78624 4.16387 7.92781 4.19004C8.06936 4.21622 8.19997 4.25014 8.31962 4.29181V5.40079C8.31962 5.50976 8.35381 5.59844 8.4222 5.66681C8.49058 5.73519 8.57925 5.76937 8.68822 5.76937C8.7972 5.76937 8.88587 5.73519 8.95425 5.66681C9.02262 5.59844 9.05681 5.50976 9.05681 5.40079V4.60912C9.48735 4.91147 9.81667 5.27392 10.0448 5.69646C10.2729 6.11899 10.3923 6.592 10.4029 7.1155H10.5952C10.7042 7.1155 10.7929 7.14969 10.8613 7.21806C10.9296 7.28644 10.9638 7.37511 10.9638 7.48408C10.9638 7.59305 10.9296 7.68173 10.8613 7.7501C10.7929 7.81848 10.7042 7.85267 10.5952 7.85267H10.4029C10.4029 8.69989 10.1206 9.40581 9.556 9.97044C8.99136 10.5351 8.30145 10.8174 7.48629 10.8174ZM7.48629 9.56742C7.95531 9.56742 8.35035 9.4069 8.67139 9.08585C8.99243 8.7648 9.15295 8.36976 9.15295 7.90075H5.81962C5.81962 8.36976 5.98015 8.7648 6.3012 9.08585C6.62225 9.4069 7.01727 9.56742 7.48629 9.56742ZM13.7523 12.436L13.6594 11.827C13.5654 11.7992 13.4708 11.7613 13.3757 11.7132C13.2806 11.6651 13.1957 11.6037 13.1209 11.5289L12.5536 11.7533L12.185 11.0994L12.6594 10.7148C12.6487 10.6625 12.6433 10.6128 12.6433 10.5658V10.2717C12.6433 10.2274 12.6487 10.1764 12.6594 10.1187L12.185 9.73406L12.5536 9.08021L13.1209 9.30458C13.1871 9.23833 13.2699 9.17903 13.3693 9.12669C13.4687 9.07434 13.5654 9.03428 13.6594 9.0065L13.7523 8.39752H14.4895L14.5824 9.0065C14.6765 9.03428 14.7732 9.07434 14.8725 9.12669C14.9719 9.17903 15.0547 9.23833 15.1209 9.30458L15.6882 9.08021L16.0568 9.73406L15.5824 10.1187C15.5931 10.1764 15.5985 10.2274 15.5985 10.2717V10.5658C15.5985 10.6128 15.5931 10.6625 15.5824 10.7148L16.0568 11.0994L15.6882 11.7533L15.1209 11.5289C15.0461 11.6037 14.9612 11.6651 14.8661 11.7132C14.771 11.7613 14.6765 11.7992 14.5824 11.827L14.4895 12.436H13.7523ZM14.1209 11.1059C14.3089 11.1059 14.4708 11.038 14.6065 10.9023C14.7422 10.7667 14.81 10.6048 14.81 10.4167C14.81 10.2287 14.7422 10.0668 14.6065 9.93117C14.4708 9.79549 14.3089 9.72765 14.1209 9.72765C13.9329 9.72765 13.771 9.79549 13.6353 9.93117C13.4996 10.0668 13.4318 10.2287 13.4318 10.4167C13.4318 10.6048 13.4996 10.7667 13.6353 10.9023C13.771 11.038 13.9329 11.1059 14.1209 11.1059ZM15.7171 8.09302L15.5985 7.33021C15.4575 7.29387 15.3175 7.23644 15.1786 7.15792C15.0397 7.07939 14.9233 6.9851 14.8292 6.87506L14.0825 7.15071L13.6113 6.34302L14.2395 5.83021C14.2117 5.75543 14.1952 5.68652 14.1898 5.62348C14.1845 5.56045 14.1818 5.49154 14.1818 5.41675C14.1818 5.34196 14.1845 5.27305 14.1898 5.21002C14.1952 5.14698 14.2117 5.07807 14.2395 5.00329L13.6113 4.49048L14.0825 3.68279L14.8292 3.95844C14.9233 3.84839 15.0397 3.75411 15.1786 3.67558C15.3175 3.59706 15.4575 3.53962 15.5985 3.50329L15.7171 2.74048H16.6594L16.778 3.50329C16.919 3.53962 17.0589 3.59706 17.1978 3.67558C17.3367 3.75411 17.4532 3.84839 17.5472 3.95844L18.294 3.68279L18.7651 4.49048L18.1369 5.00329C18.1647 5.07807 18.1813 5.14698 18.1866 5.21002C18.1919 5.27305 18.1946 5.34196 18.1946 5.41675C18.1946 5.49154 18.1919 5.56045 18.1866 5.62348C18.1813 5.68652 18.1647 5.75543 18.1369 5.83021L18.7651 6.34302L18.294 7.15071L17.5472 6.87506C17.4532 6.9851 17.3367 7.07939 17.1978 7.15792C17.0589 7.23644 16.919 7.29387 16.778 7.33021L16.6594 8.09302H15.7171ZM16.1882 6.5065C16.4959 6.5065 16.7545 6.4018 16.9639 6.1924C17.1733 5.98299 17.278 5.72444 17.278 5.41675C17.278 5.10906 17.1733 4.85051 16.9639 4.6411C16.7545 4.4317 16.4959 4.327 16.1882 4.327C15.8805 4.327 15.622 4.4317 15.4126 4.6411C15.2032 4.85051 15.0985 5.10906 15.0985 5.41675C15.0985 5.72444 15.2032 5.98299 15.4126 6.1924C15.622 6.4018 15.8805 6.5065 16.1882 6.5065Z" fill="#2C2C2C"/>
</svg>
