<svg xmlns="http://www.w3.org/2000/svg" width="19" height="15" viewBox="0 0 19 15" fill="none">
  <path d="M0.45166 3.36131C0.45166 2.61305 1.05824 2.00647 1.8065 2.00647H16.2581C17.0064 2.00647 17.6129 2.61305 17.6129 3.36131V12.8452C17.6129 13.5934 17.0064 14.2 16.2581 14.2H2.25811C1.26044 14.2 0.45166 13.3912 0.45166 12.3936V3.36131Z" fill="#021024" fill-opacity="0.1"/>
  <path fill-rule="evenodd" clip-rule="evenodd" d="M2.25811 0.651733C1.26044 0.651733 0.45166 1.46051 0.45166 2.45819V3.36141V3.81302V11.4904C0.45166 12.4881 1.26044 13.2969 2.25811 13.2969H15.8065C16.3053 13.2969 16.7097 12.8925 16.7097 12.3937V3.36141C16.7097 2.86257 16.3053 2.45819 15.8065 2.45819V1.55496C15.8065 1.05612 15.4021 0.651733 14.9033 0.651733H2.25811Z" fill="#955821"/>
  <path fill-rule="evenodd" clip-rule="evenodd" d="M0 2.45814C0 1.21104 1.01097 0.200073 2.25806 0.200073H14.9032C15.6515 0.200073 16.2581 0.806655 16.2581 1.55491V2.08362C16.7843 2.26961 17.1613 2.77146 17.1613 3.36136V12.3936C17.1613 13.1419 16.5547 13.7485 15.8064 13.7485H2.25806C1.01097 13.7485 0 12.7375 0 11.4904V2.45814ZM15.8064 2.45814C16.3053 2.45814 16.7097 2.86253 16.7097 3.36136V12.3936C16.7097 12.8925 16.3053 13.2968 15.8064 13.2968H2.25806C1.26039 13.2968 0.451613 12.4881 0.451613 11.4904V2.45814C0.451613 1.46046 1.26039 0.651686 2.25806 0.651686H14.9032C15.4021 0.651686 15.8064 1.05607 15.8064 1.55491V2.45814Z" fill="#5F320B"/>
  <path fill-rule="evenodd" clip-rule="evenodd" d="M0.903053 2.68396C1.02776 2.68396 1.12886 2.78506 1.12886 2.90977V11.942C1.12886 12.0667 1.02776 12.1678 0.903053 12.1678C0.778343 12.1678 0.677246 12.0667 0.677246 11.942V2.90977C0.677246 2.78506 0.778343 2.68396 0.903053 2.68396Z" fill="#C87E3B"/>
  <path d="M14.9034 0.651733H2.0324C1.65827 0.651733 1.35498 0.955026 1.35498 1.32915C1.35498 1.70328 1.65827 2.00657 2.0324 2.00657H15.8066V1.55496C15.8066 1.05612 15.4022 0.651733 14.9034 0.651733Z" fill="#824B19"/>
  <path d="M15.8066 2.45816V1.55493H1.80659C1.55717 1.55493 1.35498 1.75713 1.35498 2.00655C1.35498 2.25596 1.55718 2.45816 1.80659 2.45816H15.8066Z" fill="#713E12"/>
  <path fill-rule="evenodd" clip-rule="evenodd" d="M2.03235 0.651686C1.65822 0.651686 1.35493 0.954977 1.35493 1.32911C1.35493 1.70323 1.65822 2.00652 2.03235 2.00652H16.0324C16.1571 2.00652 16.2582 2.10762 16.2582 2.23233C16.2582 2.35704 16.1571 2.45814 16.0324 2.45814H2.03235C1.40881 2.45814 0.90332 1.95265 0.90332 1.32911C0.90332 0.705558 1.40881 0.200073 2.03235 0.200073H5.87106C5.99577 0.200073 6.09687 0.30117 6.09687 0.42588C6.09687 0.550589 5.99577 0.651686 5.87106 0.651686H2.03235Z" fill="#5F320B"/>
  <path d="M12.645 11.0388C12.645 11.1635 12.5439 11.2646 12.4192 11.2646C12.2945 11.2646 12.1934 11.1635 12.1934 11.0388C12.1934 10.9141 12.2945 10.813 12.4192 10.813C12.5439 10.813 12.645 10.9141 12.645 11.0388Z" fill="#7E4919"/>
  <path d="M13.5483 10.813C13.5483 10.9377 13.4472 11.0388 13.3225 11.0388C13.1978 11.0388 13.0967 10.9377 13.0967 10.813C13.0967 10.6883 13.1978 10.5872 13.3225 10.5872C13.4472 10.5872 13.5483 10.6883 13.5483 10.813Z" fill="#7E4919"/>
  <path d="M13.7741 11.6032C13.7741 11.7903 13.6225 11.9419 13.4354 11.9419C13.2483 11.9419 13.0967 11.7903 13.0967 11.6032C13.0967 11.4162 13.2483 11.2645 13.4354 11.2645C13.6225 11.2645 13.7741 11.4162 13.7741 11.6032Z" fill="#7E4919"/>
  <path d="M16.0319 12.0549C16.0319 12.242 15.8803 12.3936 15.6932 12.3936C15.5061 12.3936 15.3545 12.242 15.3545 12.0549C15.3545 11.8678 15.5061 11.7162 15.6932 11.7162C15.8803 11.7162 16.0319 11.8678 16.0319 12.0549Z" fill="#7E4919"/>
  <path d="M12.8708 12.0549C12.8708 12.242 12.7191 12.3936 12.5321 12.3936C12.345 12.3936 12.1934 12.242 12.1934 12.0549C12.1934 11.8678 12.345 11.7162 12.5321 11.7162C12.7191 11.7162 12.8708 11.8678 12.8708 12.0549Z" fill="#7E4919"/>
  <path d="M11.5161 11.7162C11.5161 11.8409 11.415 11.942 11.2903 11.942C11.1656 11.942 11.0645 11.8409 11.0645 11.7162C11.0645 11.5915 11.1656 11.4904 11.2903 11.4904C11.415 11.4904 11.5161 11.5915 11.5161 11.7162Z" fill="#7E4919"/>
  <path d="M10.6127 12.3937C10.6127 12.5184 10.5116 12.6195 10.3869 12.6195C10.2622 12.6195 10.1611 12.5184 10.1611 12.3937C10.1611 12.2689 10.2622 12.1678 10.3869 12.1678C10.5116 12.1678 10.6127 12.2689 10.6127 12.3937Z" fill="#7E4919"/>
  <path d="M16.0322 9.68394C16.0322 9.80865 15.9311 9.90974 15.8064 9.90974C15.6817 9.90974 15.5806 9.80865 15.5806 9.68394C15.5806 9.55923 15.6817 9.45813 15.8064 9.45813C15.9311 9.45813 16.0322 9.55923 16.0322 9.68394Z" fill="#7E4919"/>
  <path d="M14.2255 9.90977C14.2255 10.0345 14.1244 10.1356 13.9997 10.1356C13.875 10.1356 13.7739 10.0345 13.7739 9.90977C13.7739 9.78506 13.875 9.68396 13.9997 9.68396C14.1244 9.68396 14.2255 9.78506 14.2255 9.90977Z" fill="#7E4919"/>
  <path d="M13.3222 12.6194C13.3222 12.7441 13.2211 12.8452 13.0964 12.8452C12.9717 12.8452 12.8706 12.7441 12.8706 12.6194C12.8706 12.4947 12.9717 12.3936 13.0964 12.3936C13.2211 12.3936 13.3222 12.4947 13.3222 12.6194Z" fill="#7E4919"/>
  <path d="M11.7417 12.6194C11.7417 12.7441 11.6406 12.8452 11.5158 12.8452C11.3911 12.8452 11.29 12.7441 11.29 12.6194C11.29 12.4947 11.3911 12.3936 11.5158 12.3936C11.6406 12.3936 11.7417 12.4947 11.7417 12.6194Z" fill="#7E4919"/>
  <path d="M14.4516 11.0388C14.4516 11.1635 14.3505 11.2646 14.2258 11.2646C14.1011 11.2646 14 11.1635 14 11.0388C14 10.9141 14.1011 10.813 14.2258 10.813C14.3505 10.813 14.4516 10.9141 14.4516 11.0388Z" fill="#7E4919"/>
  <path d="M15.1289 11.4903C15.1289 11.615 15.0278 11.7161 14.9031 11.7161C14.7783 11.7161 14.6772 11.615 14.6772 11.4903C14.6772 11.3656 14.7783 11.2645 14.9031 11.2645C15.0278 11.2645 15.1289 11.3656 15.1289 11.4903Z" fill="#7E4919"/>
  <path d="M16.2578 10.813C16.2578 10.9377 16.1567 11.0388 16.032 11.0388C15.9072 11.0388 15.8062 10.9377 15.8062 10.813C15.8062 10.6883 15.9072 10.5872 16.032 10.5872C16.1567 10.5872 16.2578 10.6883 16.2578 10.813Z" fill="#7E4919"/>
  <path d="M15.3547 10.4742C15.3547 10.6613 15.203 10.8129 15.016 10.8129C14.8289 10.8129 14.6772 10.6613 14.6772 10.4742C14.6772 10.2871 14.8289 10.1355 15.016 10.1355C15.203 10.1355 15.3547 10.2871 15.3547 10.4742Z" fill="#7E4919"/>
  <path d="M14.2255 12.1678C14.2255 12.2925 14.1244 12.3936 13.9997 12.3936C13.875 12.3936 13.7739 12.2925 13.7739 12.1678C13.7739 12.0431 13.875 11.942 13.9997 11.942C14.1244 11.942 14.2255 12.0431 14.2255 12.1678Z" fill="#7E4919"/>
  <path d="M14.9033 12.6194C14.9033 12.7441 14.8022 12.8452 14.6775 12.8452C14.5528 12.8452 14.4517 12.7441 14.4517 12.6194C14.4517 12.4947 14.5528 12.3936 14.6775 12.3936C14.8022 12.3936 14.9033 12.4947 14.9033 12.6194Z" fill="#7E4919"/>
  <path d="M12.1934 8.1034C12.1934 7.47985 12.6988 6.97437 13.3224 6.97437H17.1611C17.4105 6.97437 17.6127 7.17656 17.6127 7.42598V8.78082C17.6127 9.03024 17.4105 9.23243 17.1611 9.23243H13.3224C12.6988 9.23243 12.1934 8.72694 12.1934 8.1034Z" fill="#B16A29"/>
  <path fill-rule="evenodd" clip-rule="evenodd" d="M13.3223 6.52271H17.1611C17.6599 6.52271 18.0643 6.92709 18.0643 7.42593V8.78077C18.0643 9.27961 17.6599 9.68399 17.1611 9.68399H13.3223C12.4494 9.68399 11.7417 8.97632 11.7417 8.10335C11.7417 7.23038 12.4494 6.52271 13.3223 6.52271ZM13.3223 6.97432C12.6988 6.97432 12.1933 7.4798 12.1933 8.10335C12.1933 8.7269 12.6988 9.23238 13.3223 9.23238H17.1611C17.4105 9.23238 17.6127 9.03019 17.6127 8.78077V7.42593C17.6127 7.17651 17.4105 6.97432 17.1611 6.97432H13.3223Z" fill="#5F320B"/>
  <path fill-rule="evenodd" clip-rule="evenodd" d="M12.1934 8.1034C12.1934 7.47985 12.6988 6.97437 13.3224 6.97437H16.9353C17.06 6.97437 17.1611 7.07546 17.1611 7.20017C17.1611 7.32488 17.06 7.42598 16.9353 7.42598H13.3224C12.9483 7.42598 12.645 7.72927 12.645 8.1034H12.1934Z" fill="#DD893D"/>
  <path fill-rule="evenodd" clip-rule="evenodd" d="M12.1934 8.1034C12.1934 7.47985 12.6988 6.97437 13.3224 6.97437H13.5482C13.6729 6.97437 13.774 7.07546 13.774 7.20017C13.774 7.32488 13.6729 7.42598 13.5482 7.42598H13.3224C12.9483 7.42598 12.645 7.72927 12.645 8.1034V8.3292C12.645 8.45391 12.5439 8.55501 12.4192 8.55501C12.2945 8.55501 12.1934 8.45391 12.1934 8.3292V8.1034Z" fill="#FEBB7D"/>
  <path d="M13.9999 8.10332C13.9999 8.47745 13.6966 8.78074 13.3224 8.78074C12.9483 8.78074 12.645 8.47745 12.645 8.10332C12.645 7.72919 12.9483 7.4259 13.3224 7.4259C13.6966 7.4259 13.9999 7.72919 13.9999 8.10332Z" fill="#5F320B"/>
  <path fill-rule="evenodd" clip-rule="evenodd" d="M1.80664 0.87754C1.80664 0.75283 1.90774 0.651733 2.03245 0.651733H14.4518C14.5765 0.651733 14.6776 0.75283 14.6776 0.87754C14.6776 1.00225 14.5765 1.10335 14.4518 1.10335H2.03245C1.90774 1.10335 1.80664 1.00225 1.80664 0.87754Z" fill="#955821"/>
  <path fill-rule="evenodd" clip-rule="evenodd" d="M2.03223 2.68394C2.03223 2.55923 2.13332 2.45813 2.25803 2.45813H15.3548C15.4795 2.45813 15.5806 2.55923 15.5806 2.68394C15.5806 2.80865 15.4795 2.90974 15.3548 2.90974H2.25803C2.13332 2.90974 2.03223 2.80865 2.03223 2.68394Z" fill="#C87E3B"/>
  <path fill-rule="evenodd" clip-rule="evenodd" d="M0.900191 1.81285C1.00713 1.74869 1.14583 1.78337 1.21 1.8903C1.35854 2.13787 1.52354 2.27435 1.69049 2.35226C1.86088 2.43178 2.05004 2.45809 2.2583 2.45809H5.41959C5.5443 2.45809 5.6454 2.55919 5.6454 2.6839C5.6454 2.80861 5.5443 2.90971 5.41959 2.90971H2.2583C2.01495 2.90971 1.7525 2.87957 1.49951 2.76151C1.24306 2.64183 1.01291 2.4396 0.82274 2.12266C0.758578 2.01572 0.793254 1.87702 0.900191 1.81285Z" fill="#EC974A"/>
</svg>